<?xml version="1.0" encoding="UTF-8"?>
<svg xmlns="http://www.w3.org/2000/svg" version="1.1" viewBox="0 0 1680 1680">
  <defs>
    <style>
      .st0 {
        fill: #4e5b2b;
      }
    </style>
  </defs>
  <g>
    <path class="st0" d="M711.52,1290.41c16.83,7.96,10.81,23.23-7.31,23.23-33.84,0-21.58-28.01-11.2-46.79,2.86-5.17,17.18-24.97,16.27-29.33-3.2-5.41-4.16-11.69-6.65-17.38-8.41-19.24-21.43-38.44-29.77-58.5-13.51-32.5-19.97-65.89-29.09-99.48-9.34-34.4-23.32-72.59-27.34-107.94-2.87-25.23,3.46-51.54,4.83-76.7.97-17.85.23-36.29-.98-53.78-1.65-23.86,20.16-53.81,29.77-74.78-9.96-11.99-17.58-25.66-25.16-39.22-12.69-22.7-29.57-52.94-37.97-77.17-19.72-56.86,3.03-158.22,75.2-163.22,28.17-1.95,49.21,19.08,66.55,38.25.04-11-.31-23.08-3.15-33.78-2.38-8.97-8.05-16.33-10.57-24.93-1.42-4.83,0-7.32,3.38-2.42,1.63,2.37,2.58,5.24,4.62,7.85,13.6,17.39,18.88,24.26,24.27,46.73,5,20.87,11.78,46.13,10.24,67.45-.84,11.53-4.4,23.09-5.73,34.56-1.46,12.62-1.18,25.66-3.01,38.25-4.18,28.88-21.14,65.28-36.9,89.75-7.27,11.29-18.74,22.7-24.56,33.97-2.71,5.25-3.96,11.3-6.37,16.66-2.81,6.25-7.87,13.7-9.82,19.92-2.26,7.18-1.66,15.29-3.11,22.8-3.02,15.61-15.58,26.23-19.24,41.2-2.75,11.26-4.36,49.11-2.29,60.54,1.28,7.09,5.26,14.45,7.15,21.63,6.16,23.39,8.95,48.25,15.38,70.98,16.73,59.14,41.54,116.13,60.72,174.35,3.92,11.89,9.29,25.47,6.28,37.98-2.05,8.52-10.82,12.49-13.68,19.9-1.33,3.45-1.22,7.5-2.28,11.15-2.74,9.45-6.45,18.78-8.45,28.26Z"/>
    <path class="st0" d="M950.06,777.38c5.5-.82,10.91,9.44,12.9,13.59,32.51,67.65,18.22,181.97-4.71,251.8-9.8,29.85-27.73,82.07-43.99,107.6-11.42,17.94-18.07,28.75-27.86,47.94-1.65,3.24-10.8,17.21-10.83,18.8-.06,3.54,10.38,20.26,12.94,24.41,14.1,22.86,45.67,57.39,10.01,77.33-9.59,5.36-44.38,14.99-55.2,14.93-4.8-.03-10.48-1.83-15.3-2.03-19.54-.84-43.77-.78-62.46-7.58-5.24-1.91-7.49-4.46-7.2-10.16.68-13.54,19.92-8.18,28.33-8.09,13.02.15,23.86-1.25,36.46-2,7.02-.42,15.23.85,22.03-.04,3.56-.47,25.79-8.22,29.34-9.99,1.25-.62,2.51-1.16,3.35-2.35.7-1.56-9.04-28.94-10.58-32.64-4.73-11.4-16.1-26.58-17.48-38.19-1.49-12.52,16.76-52.82,23.25-65.49,32.27-63.03,54.28-115.16,63.66-186.75,7.37-56.21-1.7-110.19,4.97-165.81.48-4.03,3.64-21.88,5.76-23.98.59-.58,1.79-1.18,2.61-1.3Z"/>
    <path class="st0" d="M674.31,916.66c5.16-5.19,23.58-4.46,30.9-4.2,23.43.83,44.2,2.97,68.07.99,35.28-2.92,72.36-14.71,106.52-17.25,13.64-1.02,28.41.7,42.18.01,8.1,3.33.3,12.49-3.31,16.79-28.98,34.56-85.16,32.66-126.23,33.04-40.28.37-70.62,1.47-109.84-10.97-8.3-2.63-16.02-10.63-8.29-18.41Z"/>
    <path class="st0" d="M732.3,1065.3c8.85-1.05,25,4,35.2,4.6,29.8,1.74,60.35-1.1,90.22.93,5.76.39,15.54,2.04,20.94,4.01,5.76,2.1-1.49,11.55-4.78,14.05-20.29,15.39-57.63,20.57-82.34,18.39-16.85-1.49-53.02-9.48-65.66-20.69-8.83-7.83-5.1-19.9,6.42-21.27Z"/>
  </g>
</svg>