<?xml version="1.0" encoding="UTF-8"?>
<svg xmlns="http://www.w3.org/2000/svg" version="1.1" viewBox="0 0 1680 1680">
  <defs>
    <style>
      .st0 {
        fill: #4e5b2b;
      }
    </style>
  </defs>
  <g>
    <path class="st0" d="M1207.57,1307.42H472.43c-24.81,0-44.96-20.16-44.96-44.96V417.54c0-24.81,20.16-44.96,44.96-44.96h735.14c24.81,0,44.96,20.16,44.96,44.96v844.92c0,24.81-20.16,44.96-44.96,44.96ZM472.43,411.58c-3.28,0-5.96,2.68-5.96,5.96v844.92c0,3.28,2.68,5.96,5.96,5.96h735.14c3.28,0,5.96-2.68,5.96-5.96V417.54c0-3.28-2.68-5.96-5.96-5.96H472.43Z"/>
    <rect class="st0" x="527.43" y="527.58" width="625.14" height="39"/>
    <rect class="st0" x="527.43" y="625.58" width="625.14" height="39"/>
    <rect class="st0" x="527.43" y="723.58" width="625.14" height="39"/>
    <rect class="st0" x="527.43" y="821.58" width="625.14" height="39"/>
    <rect class="st0" x="527.43" y="919.58" width="625.14" height="39"/>
    <rect class="st0" x="527.43" y="1017.58" width="625.14" height="39"/>
    <rect class="st0" x="527.43" y="1115.58" width="625.14" height="39"/>
  </g>
</svg>