<?xml version="1.0" encoding="UTF-8"?>
<svg xmlns="http://www.w3.org/2000/svg" version="1.1" viewBox="0 0 1680 1680">
  <defs>
    <style>
      .st0 {
        fill: #4e5b2b;
      }
    </style>
  </defs>
  <g>
    <path class="st0" d="M1303.91,801.19c-18.75-33.43-46.08-60.74-79.13-79.06-16.16-8.96-33.61-15.37-51.87-19.06-9.14-1.85-18.48-2.77-27.75-2.77-19.71,0-39.25,3.55-58.12,10.56-35.96,13.37-66.71,37.5-88.89,69.73-22.18,32.23-34.38,69.9-35.31,108.98-.52,21.59,2.21,43.16,8.11,64.08,11.82,41.94,37.32,78.95,73.75,107.06,36.43,28.11,80.63,43.04,127.87,43.25.47,0,.93,0,1.4,0,47.04,0,91.08-15.06,127.49-43.62,36.4-28.56,61.69-67.05,73.13-111.38,5.71-22.15,8.6-44.97,8.6-67.81,0-38.8-10.29-76.73-29.75-109.74l.46-.23ZM1326.18,989.99c-10.41,40.34-33.46,75.43-66.67,101.46-33.21,26.03-73.34,40.1-116.13,40.64-.43,0-.86,0-1.29,0-43.09-.19-83.41-13.72-116.65-39.13-33.24-25.4-56.51-59.34-67.34-98.16-5.41-19.41-7.97-39.35-7.6-59.29.85-35.63,11.99-70.05,32.25-99.6,20.26-29.55,48.29-51.41,81.11-63.27,17.23-6.22,35.08-9.37,53.06-9.37,8.46,0,16.97.84,25.32,2.53,16.69,3.37,32.59,9.24,47.35,17.45,30.13,16.73,54.88,41.59,71.64,71.96,17.76,32.2,27.15,68.6,27.15,105.35,0,20.82-2.62,41.59-7.79,61.66l-.41-.22Z"/>
    <path class="st0" d="M1131.48,523.2c-18.33,0-36.68-1.07-54.52-3.18-71.62-8.48-134.42-29.06-186.61-61.13-104.52-64.27-156.44-168.57-158.54-171.49-3.53-4.91-2.38-11.74,2.56-15.25,4.94-3.51,11.75-2.37,15.25,2.56,1.95,2.72,50.16,95.71,147.43,156.68,48.88,30.61,107.83,49.62,175.22,56.48,72.91,7.42,146.14,1.54,217.61-17.47,5.88-1.57,11.95,1.93,13.53,7.82,1.57,5.89-1.93,11.95-7.82,13.53-62.43,16.62-124.14,25.37-183.74,26.02-6.73.13-13.48.19-20.08.19l.72-4.76Z"/>
  </g>
</svg>