<?xml version="1.0" encoding="UTF-8"?>
<svg xmlns="http://www.w3.org/2000/svg" version="1.1" viewBox="0 0 1680 1680">
  <defs>
    <style>
      .st0 {
        fill: #4e5b2b;
      }
    </style>
  </defs>
  <g>
    <path class="st0" d="M1273.5,650.3c-37.8-75.6-106.2-134.7-187.7-162-26.7-8.9-56.4-13.6-86.1-13.6-49.2,0-97.2,12.7-138.7,36.8-81.5,47.3-136.7,128.5-151.3,222.6-6.7,43.4-4.2,87.7,7.2,128.1,11.4,40.4,32.1,77.5,59.8,107.3,55.6,59.7,135.8,93.9,220,93.9,37.8,0,75.6-7.2,109.4-20.8,81.5-32.8,146.2-97.5,177.3-177.3,13.6-34.7,20.8-72.5,20.8-109.4,0-37.8-10.5-75.6-30.5-105.6ZM999.7,1024.7c-75.6,0-151.3-30.5-201.8-83.2-25.6-26.7-44.2-58.9-54.7-93.9-10.5-35-12.5-72.5-6.2-108.6,13.1-83.2,61.8-154.2,133.8-197.1,36.8-21.5,78.6-32.8,121.9-32.8,26.7,0,53.4,4.2,78.6,12.5,72,24.6,131.8,75.6,165.6,142.4,18.3,35.7,27.8,73.5,27.8,114.9,0,32.8-6.7,65.5-18.3,96.1-27.8,70.7-84.2,125.7-155.2,155.2-29.9,12.5-60.8,18.3-91.6,18.3ZM813.8,804.2c-8.9-35-6.2-73.5,8.9-106.2,4.2-10.5,9.4-20.8,15.7-30.5l16.7,17.8c5.2,5.2,13.1,5.2,18.3,0,5.2-5.2,5.2-13.1,0-18.3l-16.7-18.3c9.4-10.5,19.4-19.9,30.5-28.3,10.5-8.4,21.5-15.7,33.6-21.5l7.2,16.7c2.1,5.2,7.3,8.4,12.5,8.4,2.1,0,3.7,0,5.2-.5,6.2-2.1,9.4-9.4,7.3-15.7l-7.2-16.7c17.3-5.2,35.7-7.3,53.4-7.3,15.7,0,31.5,2.1,46.8,5.2l-3.1,14.6c-1.5,7.3,2.6,14.6,9.4,16.2,1,0,2.1.5,2.6.5,5.7,0,11.5-4.2,12.5-10.5l3.1-14.6c13.1,4.2,25.1,10.5,37.2,16.7,11.5,6.7,22.5,14.1,33.1,22.5l-11.5,12.5c-4.7,4.7-4.7,13.1-.5,18.3,2.6,2.6,5.7,3.7,9.4,3.7s6.7-1.5,9.4-3.7l11.5-12.5c7.3,8.9,14.1,17.8,19.9,27.8,10.5,17.8,17.8,37.8,22.5,57.8l-15.7,2.6c-6.7,1.5-11.5,8.4-9.9,15.7,1.5,5.7,5.7,10.5,11.5,10.5,1,0,1.5,0,2.6-.5l15.7-2.6c2.1,14.1,3.1,28.3,1.5,42.9-1.5,14.6-5.2,28.8-9.4,42.4l-18.3-5.2c-6.7-2.1-14.1,1.5-16.2,8.9-2.1,6.7,1.5,14.1,8.9,16.2l18.3,5.2c-5.7,13.6-13.6,26.7-21.5,38.3-8.4,11.5-18.3,22.5-29.4,32l-8.9-13.6c-4.2-6.2-11.5-7.3-17.3-3.7-6.2,4.2-7.3,11.5-3.7,17.3l8.9,13.6c-12.5,8.4-26.7,15.7-41.3,21.5-14.6,5.2-29.4,8.9-45.2,10.5l-1.5-15.2c-.5-7.3-7.3-12.5-15.2-12.5h-1.5c-6.7.5-12.5,7.3-12.5,14.6l1.5,15.2c-16.7-.5-33.1-4.2-48.8-10.5-15.7-5.7-30.5-14.6-43.9-24.6l12.5-12.5c4.7-5.2,4.7-13.6-.5-18.3-5.2-4.7-13.6-4.7-18.3.5l-12.5,12.5c-13.1-13.6-24.6-28.8-33.1-46.2-8.4-17.8-13.6-37.2-16.7-56.8l19.9,2.1c7.3.5,13.1-4.7,13.6-12.5.5-7.3-4.7-13.1-12.5-13.6l-19.9-2.1Z"/>
  </g>
</svg>