<?xml version="1.0" encoding="UTF-8"?>
<svg xmlns="http://www.w3.org/2000/svg" version="1.1" viewBox="0 0 1909.09 1909.09">
  <defs>
    <style>
      .st0 {
        fill: #4e5b2b;
      }
    </style>
  </defs>
  <g>
    <path class="st0" d="M954.54,608.42c-191.23,0-346.13,154.9-346.13,346.13s154.9,346.13,346.13,346.13,346.13-154.9,346.13-346.13-154.9-346.13-346.13-346.13ZM954.54,1229.7c-151.58,0-275.15-123.57-275.15-275.15s123.57-275.15,275.15-275.15,275.15,123.57,275.15,275.15-123.57,275.15-275.15,275.15Z"/>
    <rect class="st0" x="919.05" y="123.98" width="71" height="343.45"/>
    <rect class="st0" x="919.05" y="1441.67" width="71" height="343.45"/>
    <rect class="st0" x="1441.67" y="919.05" width="343.45" height="71"/>
    <rect class="st0" x="123.98" y="919.05" width="343.45" height="71"/>
    <rect class="st0" x="1213.8" y="320.81" width="71" height="343.45" transform="translate(76.99 -641.57) rotate(45)"/>
    <rect class="st0" x="624.38" y="1045.82" width="71" height="343.45" transform="translate(-486.04 -51.55) rotate(45)"/>
    <rect class="st0" x="1045.82" y="1213.8" width="343.45" height="71" transform="translate(-486.04 1139.48) rotate(-45)"/>
    <rect class="st0" x="320.81" y="624.38" width="343.45" height="71" transform="translate(76.99 548.49) rotate(-45)"/>
  </g>
</svg>