<?xml version="1.0" encoding="UTF-8"?>
<svg xmlns="http://www.w3.org/2000/svg" version="1.1" viewBox="0 0 1680 1680">
  <defs>
    <style>
      .st1 {
        fill: #4e5b2b;
      }
    </style>
  </defs>
  <g>
    <path class="st1" d="M1278.6,658.1c-8-3.4-17.3.2-20.7,8.2l-66.4,154.8h-153.1l-71.1-191.9c-1.6-4.3-4.7-7.9-8.7-10l-138.3-73.9c-3.9-2.1-8.5-2.6-12.8-1.5l-177.1,45.5c-4.8,1.2-8.9,4.3-11.3,8.5l-123.5,211.3h-135.3c-9.3,0-16.9,7.6-16.9,16.9v7.5c0,1.4.2,2.7.5,4l99.1,409.9c1.5,6.2,7,10.5,13.4,10.5h838.3c6.4,0,11.9-4.3,13.4-10.5l99.1-409.9c.3-1.3.5-2.6.5-4v-7.5c0-4.5-1.8-8.8-5-12l-103.8-103.8c-3.7-3.7-9.1-5.3-14.4-4.2l-125.5,25.6c-4.3.9-8.1,3.5-10.4,7.2l-78.5,125.8h-158.3l168.5-210.3,164.5,71.3-28.4,66.2c-3.4,8,.2,17.3,8.2,20.7,2,1.1,4.2,1.3,6.2,1.3,6.1,0,11.9-3.5,14.5-9.5l31.8-74.1c3.4-8-.2-17.3-8.2-20.7l-189-81.9c-8-3.4-17.3.2-20.7,8.2ZM1362.5,1219.1H355.2l-94.6-391h1196.6l-94.6,391ZM472.9,794.2l109.3-187h.1l150,38.5-174.2,148.4h-85.2ZM705.7,576.2l126.7,67.7,63.6,171.6-1.1,8.6h-1.3l-189.7-1.4.1-246.5ZM1095.4,872h-87.4l74-118.6,117.7-24,98.1,98.1-202.3,44.5Z"/>
    <path class="st1" d="M1128.2,987.3h-560.2c-8.4,0-15.3,6.8-15.3,15.3s6.8,15.3,15.3,15.3h560.2c8.4,0,15.3-6.8,15.3-15.3s-6.8-15.3-15.3-15.3Z"/>
    <path class="st1" d="M1096.7,1064.5h-497.3c-8.4,0-15.3,6.8-15.3,15.3s6.8,15.3,15.3,15.3h497.3c8.4,0,15.3-6.8,15.3-15.3s-6.8-15.3-15.3-15.3Z"/>
    <path class="st1" d="M1065.1,1141.7h-434.3c-8.4,0-15.3,6.8-15.3,15.3s6.8,15.3,15.3,15.3h434.3c8.4,0,15.3-6.8,15.3-15.3s-6.8-15.3-15.3-15.3Z"/>
  </g>
</svg>