<?xml version="1.0" encoding="UTF-8"?>
<svg xmlns="http://www.w3.org/2000/svg" version="1.1" viewBox="0 0 1680 1680">
  <defs>
    <style>
      .st0 {
        fill: #4e5b2b;
      }
    </style>
  </defs>
  <g>
    <path class="st0" d="M1358.5,1002.9c-9.1-4.2-19.8.1-23.9,9.2l-86.6,190.7c-4.2,9.1-.1,19.8,9.2,23.9,2.4,1.1,5,1.6,7.6,1.6,6.9,0,13.5-3.8,16.7-10.5l86.6-190.7c4.2-9.1.1-19.8-9.2-23.9l-.4-.2Z"/>
    <path class="st0" d="M1444.2,759l-79.5-195.1c-2.2-5.5-6.7-9.7-12.3-11.7l-164.4-57.5c-4.3-1.5-9-1.3-13.2.5l-147.3,63.3c-5.9,2.5-10.2,7.6-11.6,13.7l-18,81.3c-28.7-10.6-56.7-11.8-80.9-3.5-27.3,9.4-50.6,32.5-69.5,68.5-19.8,37.9-37.5,67.8-53.9,91.2h-161.5c-10,0-18.1,8.1-18.1,18.1v150c0,10,8.1,18.1,18.1,18.1h97.4l34.1,37.2c-7.4,22.1-23.5,65.9-48.1,130.9-19.4,51.2-26.3,80.8-28.2,97.5-1.7,15.2,4.6,30.3,16.8,40.2,6.8,5.5,15.3,8.6,24.1,8.6,2.8,0,5.6-.3,8.4-.9l207.5-44.7c12.9-2.8,22.5-13.8,23.4-26.8,8-116.4,87.8-114.9,152.7-113.5,16.2.4,32,1,46.6-.2l19,50.1c.2.5.4,1.1.7,1.6,13.9,35.9,29.9,70.1,47.7,101.8-19.7,27.8-36.9,42.7-54.2,46.7-12.9,3-23.3,12.3-27.8,24.6-4.5,12.4-2,26.1,6.7,36.3,22.1,26.3,51.6,40.3,82.6,40.3,16.7,0,33.8-4.2,50.5-12.5,26.3-13.1,48.2-36.4,65.3-69.2,19.6-37.7,24.9-79.7,15.7-124.6l-29.2-142.1c-1.5-7.3-6.4-13.4-13-16.2l-64.5-27.5c-17.7-31.7-36.9-65.3-57.4-100.5-29.2-50.1-56.4-90.6-76.4-114.3,19.6-13.1,41.8-13.5,56.6-1,6.7,5.6,15.1,8.3,23.5,8.3,9.9,0,19.6-4,26.6-11.7,14-15.3,13-38.9-2.3-52.9-22.8-20.8-52.7-30.4-82.1-26.7l16.5-74.4,140.4,60.4,159.3,55.7,78,191.4c2.4,5.8,7.2,10.2,13.1,12,1.6.5,3.2.7,4.8.7,4.1,0,8.2-1.2,11.8-3.5l107.6-70.4c8.3-5.4,10.6-16.5,5.2-24.7ZM1088.9,1115.6c-15,5-28.7,7.6-41,8,0,0,0,0-.1,0-5.6.2-11.1.2-16.5.3-25.6.4-52.3.8-78,8.3,17.7-45.7,30.3-86.5,37.1-120.7,5.5,16.6,11.7,33.2,18.4,49.6l21.8,9.3,58.4,45.1ZM946.6,912.4c-12.8-.2-26-.8-38.9-1.4-15.8-.7-29.4-1.3-40.9-.2,6.2-16.2,12.8-32.6,19.7-49.2,20.6-49.1,41.9-99.9,66.6-151.7,1.7-3.5,4.5-6.4,8-8.1l130.7-61.5c5.1-2.4,11.2-1.4,15.3,2.5,4.1,3.8,5.5,9.8,3.4,14.9-45.1,115.3-107.6,220.5-163.9,254.7ZM1109.6,1163.5l25.5,124.1c7,34.1,3,67-12,97.8-13.7,26.4-31.2,44.9-51.9,54.9-23,11.1-47.2,11-66.2-4.5,21.8-16.7,43.2-43.7,64-80.8l.2-.4c20.4-36.6,37.1-75,49.6-114.3l50.4-66.5-59.5-10.3ZM908.2,899.9c15.7-29.9,32.7-48.4,50.6-55.1,26.3-9.8,63.2,4.3,110.9,42.8,15.2,12.3,30.9,32.4,46.9,57.7-65.7,42.5-133.7,159.5-184.8,285.5-13.4.7-27.8.3-42.8-.1-15.4-.4-30.9-.9-46.1-1.1h-.6c-30.4-.4-57.8-.9-75.5,8.9-9.3,5.2-18.1,13.3-26.2,24.2l-35.9-39.2c-3.4-3.7-8.2-5.8-13.3-5.8h-78.3v-113.7h161.9c6,0,11.6-3,15-7.9,0,0,0,0,0,0,17.2-24.6,35.8-56,56.2-95.9,0,0,0,0,0,0,19.7-39.5,41.8-62.9,64.3-67.9l-2.2,4.1c-4.9,9.1-1.4,20.5,7.7,25.4,3,1.6,6.1,2.3,9.2,2.3,6.6,0,13-3.5,16.3-9.8l11.9-22.2c.1-.1.1-.2.2-.4l-45.3,86.2h0Z"/>
    <path class="st0" d="M423.7,899.6c-9.9,0-18.1,8.1-18.1,18.1v11.4c0,10,8.1,18.1,18.1,18.1s18.1-8.1,18.1-18.1v-11.4c0-10-8.1-18.1-18.1-18.1Z"/>
  </g>
</svg>