<?xml version="1.0" encoding="UTF-8"?>
<svg xmlns="http://www.w3.org/2000/svg" version="1.1" viewBox="0 0 1680 1680">
  <defs>
    <style>
      .st0 {
        fill: #4e5b2b;
      }
    </style>
  </defs>
  <g id="Capa_1_xA0_Image_00000096768842374616234230000003277556397498037841_">
    <path class="st0" d="M1130.5,597.8c-9-7.3-22.2-5.9-29.4,3.1l-17.9,22.1c-1.2-4.3-2.6-8.7-4-13.3l-54.2-169.1c-1.1-3.5-3.1-6.6-5.8-9l-81.7-73.3c-3.1-2.8-7.3-4.1-11.4-3.5l-177.5,25.7c-4.8.7-9.1,3.3-11.9,7.2l-45.8,64.2c-2.7,3.8-3.6,8.5-2.5,13l41.5,170.9c1.4,5.6,2.5,10.8,3.5,15.6l-18.4-22.8c-7.2-9-20.4-10.5-29.4-3.3s-10.5,20.4-3.3,29.4l76.7,95.2c1.3,1.7,2.9,3.2,4.6,4.4l70.4,48.6c5.2,3.6,11.3,5.4,17.5,5.4s12.2-1.8,17.5-5.4l70.4-48.6c1.8-1.2,3.4-2.7,4.6-4.4l76.7-95.2c7.3-9,5.9-22.2-3.1-29.4ZM722.8,393.5l160.9-23.3,72.1,64.8,51.6,161c.8,2.5,1.6,5,2.3,7.6l-139.4-54c-2.4-.9-5-1.4-7.6-1.4-4.2,0-8.3,1.3-11.7,3.7l-91,66.7-35.3-223.4,1.5,1.4-3.3-3.1ZM697.1,434.5l34.3,217.3-35.4-24.4-39.2-161.5,40.3-31.4ZM751.2,713.6l84.2-61.6,134.9,52.3-101.5,125.9-63.6-43.9-53.9-72.7h0Z"/>
  </g>
</svg>