<?xml version="1.0" encoding="UTF-8"?>
<svg xmlns="http://www.w3.org/2000/svg" version="1.1" viewBox="0 0 1680 1680">
  <defs>
    <style>
      .st0 {
        fill: #4e5b2b;
      }
    </style>
  </defs>
  <g id="Capa_1_xA0_Image_00000046307031913050253390000002607042050082652023_">
    <path class="st0" d="M1426.5,312.5v42.4c0,8-6.5,14.4-14.4,14.4h-42.4c-8,0-14.4-6.5-14.4-14.4v-42.4c0-8,6.5-14.4,14.4-14.4h42.4c8,0,14.4,6.5,14.4,14.4Z"/>
    <path class="st0" d="M326.5,312.5v42.4c0,8-6.5,14.4-14.4,14.4h-42.4c-8,0-14.4-6.5-14.4-14.4v-42.4c0-8,6.5-14.4,14.4-14.4h42.4c8,0,14.4,6.5,14.4,14.4Z"/>
    <path class="st0" d="M1426.5,1326.9v42.4c0,8-6.5,14.4-14.4,14.4h-42.4c-8,0-14.4-6.5-14.4-14.4v-42.4c0-8,6.5-14.4,14.4-14.4h42.4c8,0,14.4,6.5,14.4,14.4Z"/>
    <path class="st0" d="M326.5,1326.9v42.4c0,8-6.5,14.4-14.4,14.4h-42.4c-8,0-14.4-6.5-14.4-14.4v-42.4c0-8,6.5-14.4,14.4-14.4h42.4c8,0,14.4,6.5,14.4,14.4Z"/>
    <path class="st0" d="M611.9,598.3v42.4c0,8-6.5,14.4-14.4,14.4h-42.4c-8,0-14.4-6.5-14.4-14.4v-42.4c0,8,6.5,14.4,14.4,14.4h42.4c8,0,14.4-6.5,14.4-14.4Z"/>
    <path class="st0" d="M1140.8,598.3v42.4c0,8-6.5,14.4-14.4,14.4h-42.4c-8,0-14.4-6.5-14.4-14.4v-42.4c0,8,6.5,14.4,14.4,14.4h42.4c8,0,14.4-6.5,14.4-14.4Z"/>
    <path class="st0" d="M611.9,1041.2v42.4c0,8-6.5,14.4-14.4,14.4h-42.4c-8,0-14.4-6.5-14.4-14.4v-42.4c0,8,6.5,14.4,14.4,14.4h42.4c8,0,14.4-6.5,14.4-14.4Z"/>
    <path class="st0" d="M1140.8,1041.2v42.4c0,8-6.5,14.4-14.4,14.4h-42.4c-8,0-14.4-6.5-14.4-14.4v-42.4c0,8,6.5,14.4,14.4,14.4h42.4c8,0,14.4-6.5,14.4-14.4Z"/>
  </g>
</svg>