<?xml version="1.0" encoding="UTF-8"?>
<svg xmlns="http://www.w3.org/2000/svg" version="1.1" viewBox="0 0 1680 1680">
  <defs>
    <style>
      .st0 {
        fill: #4e5b2b;
      }
    </style>
  </defs>
  <g id="Capa_1_xA0_Image_00000114039629699437043510000015802868775485962695_">
    <path class="st0" d="M841,241.5c-8,0-14.4,6.5-14.4,14.4v42.4c0,8,6.5,14.4,14.4,14.4s14.4-6.5,14.4-14.4v-42.4c0-8-6.5-14.4-14.4-14.4Z"/>
    <path class="st0" d="M841,1369.5c-8,0-14.4,6.5-14.4,14.4v42.4c0,8,6.5,14.4,14.4,14.4s14.4-6.5,14.4-14.4v-42.4c0-8-6.5-14.4-14.4-14.4Z"/>
    <path class="st0" d="M841,1083.7c-8,0-14.4,6.5-14.4,14.4v42.4c0,8,6.5,14.4,14.4,14.4s14.4-6.5,14.4-14.4v-42.4c0-8-6.5-14.4-14.4-14.4Z"/>
    <path class="st0" d="M841,527.2c-8,0-14.4,6.5-14.4,14.4v42.4c0,8,6.5,14.4,14.4,14.4s14.4-6.5,14.4-14.4v-42.4c0-8-6.5-14.4-14.4-14.4Z"/>
    <path class="st0" d="M841,812.9c-8,0-14.4,6.5-14.4,14.4v42.4c0,8,6.5,14.4,14.4,14.4s14.4-6.5,14.4-14.4v-42.4c0-8-6.5-14.4-14.4-14.4Z"/>
  </g>
</svg>