<?xml version="1.0" encoding="UTF-8"?>
<svg xmlns="http://www.w3.org/2000/svg" version="1.1" viewBox="0 0 1680 1680">
  <defs>
    <style>
      .st0 {
        fill: #4e5b2b;
      }
    </style>
  </defs>
  <g>
    <path class="st0" d="M1159.9,730.6c-19-41.4-45.3-78.6-77.8-110.8-6.7-6.6-16.6-8.2-24.7-4l-120.3,61.5c-15.6-29.4-36.5-55.4-62-76.8-2.8-2.4-6.1-4.1-9.7-5.2-39.2-11.4-80.7-15.9-122.5-13.2-20.3,1.3-41.3,5.3-61.3,11.6-10.6,3.4-16.5,14.7-13.1,25.3.3.9.6,1.8,1,2.7,1.8,4.4,5.1,8.1,9.2,10.4,3.3,1.9,7,2.9,10.9,2.9,1.9,0,3.8-.2,5.6-.7,16.9-5.3,34.6-8.6,52.7-9.7,36.2-2.3,72.3,1.5,106.8,11.1-27.2,17.2-48.6,42.4-61,72.7-2.4,5.9-2.7,12.5-.8,18.6,1.8,6.1,5.7,11.3,10.9,14.7l90.4,58.5c-8.3,8-13.9,18.9-15.2,30.9l-33.3,299.4c-1.2,10.6,6.5,20.1,17.1,21.2.7.1,1.4.1,2.1.1,9.7,0,17.9-7.4,19.1-17.2l33.3-299.4c1.4-12.7,12.2-22.2,24.9-22.2h.2c12.8.1,23.4,9.9,24.5,22.6l28.8,331.8c.9,10.6,10.2,18.6,20.6,17.7,10.6-.9,18.6-10,17.7-20.6l-28.8-331.8c-1.1-12.5-6.4-23.9-14.4-32.8l87.2-44.6c31,29.7,55.8,64.6,73.5,103.4,4.2,9.2,15.1,13.3,24.3,9,9.2-4.2,13.3-15.1,9-24.3ZM781.7,794.9l-57.6-37.3c11.7-24.4,30.6-44.6,54.3-58,0,0,0,0,0,0,0,0,0,0,.1,0,6.3-3.5,12.9-6.6,19.7-9.2,7.4-2.8,15-5.1,22.8-6.9,24.2-5.6,49.4-7,74.4-4.1-8.6,8-16.3,17-22.9,26.8l-90.8,88.7Z"/>
    <path class="st0" d="M1232.9,656.7c4.9,10.8,13.9,19.2,25.1,23.5,6.9,2.7,14.2,3.9,21.5,3.9,19.5,0,38.7-9.9,49.9-27.7,15.9-25.5,24.3-54.9,24.3-84.9,0-86.8-70.6-157.4-157.4-157.4s-157.4,70.6-157.4,157.4c0,30.1,8.4,59.5,24.3,84.9,15.6,25,46.6,35.9,74.9,26.6,11.6-3.8,21.5-11.1,28.6-21.2,7.1,10.1,17,17.4,28.6,21.2,3.1,1,6.3,1.8,9.5,2.2,12.5-10.6,23.6-22.7,33.1-36,0,0,0,0,0,0-1.7-.3-3.4-.6-5-1.1-8.5-2.8-15.6-8.8-19.9-16.9-4.3-8.1-5.8-17.4-4.2-26.1,1.5-8.7,5.9-16.6,12.3-22.3,6.6-5.8,14.9-9.1,23.5-9.1,8.6,0,17,3.3,23.6,9.3,10,9.1,15,22.9,13.1,36.6-1,7.3-.7,14.5.9,21.4,1.9,8,5.4,15.4,10.3,21.9,5.8,7.7,13.4,13.8,22.1,17.9,3.7,1.7,7.6,3.1,11.7,4l-.9-27.4ZM1255.9,613c-4.2-5.3-7-11.3-8.3-17.9-1.3-6.5-1.1-13.2.5-19.9,2.1-9,6.3-17,12.3-23.7-11.8-43.8-51-76.1-97.7-76.1s-85.9,32.3-97.7,76.1c15.9,17.6,21.7,42.8,14.5,66.1-1.3,4.3-3.1,8.3-5.3,12.1-18.8-24.9-29-55.4-29-86.4,0-81.2,66-147.2,147.2-147.2s147.2,66,147.2,147.2c0,31-10.2,61.5-29,86.4-4.6-5.8-8.1-12.4-10.4-19.7-3.4-10.9-4.4-22.4-3-33.7,1.3-11.2.1-22.5-3.4-33.3-6.3-19.2-19.2-35.8-36.2-46.8-13.1-8.4-28.3-13-43.9-13s-30.8,4.6-43.9,13c-17,10.9-29.9,27.6-36.2,46.8-6.3,19.2-6.5,39.9-.7,59.3,5.9,19.4,17.8,36.2,33.6,47.2,7.9,5.5,16.7,9.7,26.1,12.5,3.3.5,6.6.7,9.9.7,5.3,0,10.6-.6,15.8-1.7,5.7-1.2,11.2-3.1,16.4-5.8,6.9-3.5,13-8.2,18.2-13.9Z"/>
  </g>
</svg>