<svg width="144" height="92" viewBox="0 0 144 92" fill="none" xmlns="http://www.w3.org/2000/svg">
<path d="M20.0091 27.232C17.5809 27.4348 14.9228 27.2516 12.5816 26.5243C11.4866 26.1844 10.4688 25.5844 9.38229 25.2208C9.15798 25.4613 10.051 27.1999 10.2641 27.4922C10.5081 27.8265 12.4063 29.4881 12.7386 29.5874C13.1606 29.7118 14.4882 29.7007 14.9523 29.6363C15.8369 29.5146 17.5683 28.1915 18.2539 28.7817C19.3095 29.6881 16.9683 30.5594 16.6458 31.2574C18.9689 31.6434 20.5461 30.1468 22.4948 29.2335L23.0836 29.4657L22.9672 30.5874C23.8252 30.5552 24.7982 30.979 25.631 30.9091C28.1306 30.6979 29.3868 29.1426 31.3201 28.2558C32.0799 27.9076 32.8889 28.0796 32.7963 29.0475C32.6912 30.1524 30.1074 31.7553 29.2886 32.4658C32.7879 33.4085 36.9826 34.596 40.6207 33.9092C42.4895 33.5568 43.3671 32.2616 44.8377 31.6756C45.3985 31.4532 45.8878 31.4322 46.3126 31.9203C47.3556 33.1232 44.6891 34.4239 45.027 34.747C48.0188 35.4687 50.4091 34.5778 52.8976 33.0057C53.7766 32.4504 56.2258 30.3049 56.938 30.1944C57.4259 30.1189 57.8829 30.1482 58.2769 30.4517C59.9578 31.7525 56.5286 34.2631 55.787 35.2827C56.4655 35.3988 57.1679 35.389 57.8338 35.5904C59.3157 36.0394 59.6101 37.1443 61.6275 36.8828C62.9496 36.7121 67.8242 33.9484 69.121 33.0882C69.8472 32.6071 72.138 30.5594 72.6749 30.4601C73.2848 30.3468 73.9886 30.5007 74.0769 31.2056C74.2493 32.5791 71.3725 34.6925 70.45 35.6226C70.3883 35.9345 70.5916 35.7848 70.7683 35.8366C73.4376 36.6142 76.1055 36.1778 78.5071 34.8044C79.9385 33.9861 81.325 32.6197 82.734 31.9077C83.4195 31.5623 84.1009 31.2644 84.8355 31.7343C86.7632 32.9651 83.5065 35.4911 82.5573 36.2911C82.8573 36.7107 83.3242 36.3736 83.6999 36.3597C84.1233 36.3429 84.6322 36.3233 85.0486 36.3541C86.452 36.4562 87.073 37.1023 88.4035 36.0869C89.5615 35.203 90.6326 33.8729 91.8481 32.9483C92.9893 32.0812 95.0207 30.6448 96.232 29.9412C96.9105 29.5468 97.5835 29.2475 98.2326 29.9091C99.514 31.214 96.5699 33.3847 95.8703 34.3442C96.5923 34.3987 97.2302 34.182 97.9606 34.2057C99.5588 34.2589 100.769 34.7008 102.514 34.3316C104.696 33.87 105.826 31.3343 107.166 29.8461C107.798 29.1454 108.423 28.6475 109.37 29.2643C110.746 30.1594 108.879 32.4434 109.053 32.6001C109.598 32.5777 110.158 32.6532 110.702 32.5693C112.242 32.3301 115.565 30.7916 116.844 29.8391C117.992 28.9831 119.307 26.9243 120.883 27.9775C122.498 29.0573 120.538 30.7944 120.756 30.9888C121.697 30.9427 122.698 31.063 123.632 30.9734C124.947 30.8476 127.578 30.3594 128.862 30.0182C129.164 29.9384 130.056 29.4825 130.236 29.2419C130.883 28.3859 131.012 25.225 132.869 25.8152C134.294 26.2684 133.213 28.1076 133.401 28.3048C134.922 27.8265 137.963 26.8278 138.317 25.0921C138.554 23.9368 137.55 21.7535 139.45 22.3437C140.218 22.5829 140.664 24.6823 140.674 25.418C140.706 27.7915 138.881 28.8769 136.893 29.5748C135.847 29.9412 133.96 30.1342 133.138 30.5259C132.817 30.6797 132.37 31.3804 131.966 31.6378C130.438 32.6141 128.529 32.5189 126.809 32.7343C127.114 33.5889 126.891 34.3106 126.569 35.1107C126.147 36.1541 125.775 37.2408 125.353 38.3262C123.883 42.1095 121.262 44.8593 120.284 48.8357C119.541 51.8554 119.116 54.9576 118.297 57.9913C116.361 65.1636 112.172 74.9807 107.375 80.6425C107.145 80.9138 106.386 81.5054 106.291 81.7194C106.196 81.9334 106.421 82.9083 106.304 83.4664C106.186 84.0244 105.834 84.514 105.423 84.8692C105.367 85.1727 105.555 85.0552 105.755 85.0692C112.983 85.5727 120.207 85.5126 127.413 86.2777C129.298 86.4777 132.188 86.6861 133.945 87.142C134.455 87.2749 134.856 87.4106 134.745 88.0218C132.294 87.9029 129.859 87.521 127.413 87.3532C121.52 86.949 116.422 87.3784 110.606 87.626C108.559 87.7127 107.104 87.3742 105.203 87.2357C103.428 87.1071 98.7639 87.7938 96.8825 88.1588C96.6876 88.1966 96.4661 88.1574 96.41 88.4246C98.7737 88.4386 101.121 88.8847 103.473 89.0959C105.154 89.2456 107.058 89.1505 108.705 89.3785C109.287 89.4582 110.01 89.8526 109.227 90.2778C105.155 90.3715 101.083 90.1449 97.0311 90.5911C96.0343 90.7002 95.0375 90.9883 94.0379 91.0946C87.0814 91.8275 80.0506 91.2974 73.0647 90.9827C69.85 90.8373 66.6101 90.7729 63.387 90.5729C61.7888 90.4736 59.7994 90.0191 58.2741 90.0261C57.6306 90.0289 56.8104 90.2946 56.1291 90.3128C47.2799 90.5408 38.9299 89.8904 30.1607 89.2344C24.4687 88.8078 18.3043 88.661 12.6923 87.8749C12.0124 87.7798 11.1431 87.7351 10.731 87.1532C10.731 86.6343 12.9236 86.2721 13.3484 86.2693C19.9418 86.2427 26.8577 87.2833 33.531 87.0805L38.3004 87.4875C37.6667 86.9574 35.3787 85.728 35.3381 84.8594C35.3241 84.5489 35.6395 84.3867 35.547 84.2664C34.668 83.9489 34.1646 83.0733 33.4497 82.5992C32.6744 82.0845 31.6664 81.802 30.964 81.0523C29.7891 79.7977 29.3293 78.3109 28.5064 76.929C25.0043 71.0379 22.398 65.5915 21.0129 58.7731C20.3133 55.324 20.7311 52.9337 20.6835 49.5728C20.619 44.9754 17.6706 41.1179 15.806 37.1289C15.3742 36.203 15.5102 35.3652 14.8149 34.2253C13.2713 31.6979 9.57857 31.0811 7.70836 28.4321C6.6597 26.9467 6.52231 25.7565 7.34946 24.0962C3.53194 21.0807 0.770085 16.8764 0.11397 11.9881C-0.950114 4.06611 5.60823 0.824034 12.6334 2.04786C17.6048 2.91362 18.0155 6.91097 19.6698 10.7293C19.925 11.3167 20.633 12.2608 20.7521 12.7392C20.8124 12.9797 20.8138 12.9839 20.6063 13.1476C20.3736 13.1965 20.2839 13.0846 20.1353 12.949C19.5423 12.4077 18.9002 11.244 18.324 10.5964C16.894 8.99218 13.7914 5.68715 11.7993 5.16266C8.53411 4.30248 4.73762 4.31787 3.03144 7.69003C1.50331 10.7111 2.89825 13.6007 4.47826 16.2232C6.67792 19.8751 9.84774 23.7871 13.8587 25.5173C15.9631 26.4264 18.2511 25.7341 20.0035 27.2362L20.0091 27.232ZM125.062 32.87C123.138 33.07 121.264 32.8015 119.36 32.498C118.138 33.6393 116.611 34.582 114.903 34.7456C112.489 34.9778 111.459 34.6463 109.245 34.3568C107.501 34.1274 107.849 34.6533 106.905 35.624C104.958 37.6268 102.513 38.1332 99.8476 37.2898C98.998 37.0212 98.1961 36.3764 97.3816 36.1275C96.4339 35.838 95.3095 35.8645 94.3408 35.5862C92.5785 36.7051 90.334 39.087 88.2394 39.4129C87.0604 39.5961 84.8005 39.301 83.6256 38.9807C82.8686 38.7751 81.5872 37.6366 81.0138 37.6954C80.8582 37.7108 79.4268 38.7625 79.0412 38.9584C75.326 40.8423 69.965 40.8941 67.1597 37.4632C65.5909 38.2115 64.2884 38.3332 62.5823 38.3695C60.3209 38.4171 59.083 38.2394 56.8917 37.873C55.7365 37.68 54.5561 37.6576 53.4275 37.3093C51.3947 38.7122 49.2371 39.4213 46.7248 39.1598C44.8475 38.964 43.5535 37.6422 41.9932 36.7611C38.3509 37.9499 34.3904 37.4296 30.7677 36.4254C29.9013 36.1848 29.1162 35.8114 28.3592 35.34C27.9189 35.0659 26.2744 33.6141 26.1343 33.5931C25.8805 33.5554 25.2889 33.8183 24.9174 33.8183C24.2963 33.8183 23.4089 33.5791 22.764 33.5414C22.0097 33.4966 21.254 33.6155 20.5068 33.4309C19.1189 34.1008 19.6853 35.8044 20.1816 36.9233C20.5755 37.8101 21.2358 38.936 22.0349 39.5038C22.5312 39.8563 23.9009 40.1416 23.3009 41.0438C22.7009 41.9459 21.9578 41.1487 21.2863 40.7878C20.6933 40.6018 22.5621 42.3123 22.6336 42.3963C25.2833 45.4607 27.6021 49.0189 31.0495 51.3113C31.6215 51.6917 32.9309 51.9449 32.6996 52.84C32.3912 54.0317 29.9153 52.9827 29.1597 52.6596C27.0932 51.777 26.3656 50.8162 24.9202 49.2399C24.7687 49.0748 24.665 49.0203 24.7197 49.3042C24.8641 50.0567 25.2777 50.9882 25.4851 51.763C25.8356 53.0764 26.6474 57.7437 27.3455 58.4948C27.4843 58.6444 29.3279 59.7704 29.6518 59.9522C30.4971 60.4235 31.3327 60.8235 32.3183 60.9158C33.1006 60.99 34.4717 60.5872 34.7507 61.5858C35.111 62.8768 31.2948 62.867 30.5813 62.7831C29.8256 62.6949 29.1835 62.2194 28.4811 62.1942C28.7433 63.6894 29.1148 65.1664 29.3868 66.6587C29.7022 68.3861 29.7373 70.5736 30.6093 72.1498C30.8687 72.6184 31.3229 73.0715 31.5991 73.5779C32.2902 74.8352 33.4006 77.9417 35.0661 78.1711C35.5652 78.2396 36.848 77.6452 37.0723 78.3193C37.2966 78.9935 36.5522 79.2298 36.0461 79.4019C34.8937 79.7921 33.9586 79.6564 32.9225 79.0354C33.1875 80.332 34.6133 81.7936 35.8428 82.2258C37.2924 82.7363 39.0224 82.5209 40.5197 82.6593C46.9743 83.2594 53.3995 83.9741 59.8849 84.2734C60.4934 84.3014 63.4935 84.1601 63.7319 84.3265L63.8398 84.921C61.4383 85.8609 58.675 85.3867 56.1193 85.4692C53.5635 85.5517 51.2867 85.686 48.8557 85.7378C48.5375 85.7448 48.2431 85.879 47.9248 85.8832L40.9922 85.6105C40.9599 85.8035 41.2249 85.7923 41.3665 85.8371C48.9861 88.3029 60.9069 86.3728 69.1785 86.6763C70.823 86.7364 72.4997 87.0343 74.1428 87.0903C79.2796 87.2651 84.2859 86.3532 89.3498 85.7448C92.922 85.3154 97.3199 85.3294 100.616 83.9671C101.115 83.7601 101.686 83.5139 102.06 83.1265C98.5424 82.3292 102.715 81.2453 103.667 80.5684C106.277 78.7151 108.32 73.894 109.609 71.0659C111.415 67.1063 113.276 63.1803 114.606 59.0081C115.89 54.9786 116.538 50.3938 117.966 46.5265C118.938 43.8942 120.74 42.0326 122.158 39.7052C123.427 37.6254 124.564 35.2533 125.06 32.8728L125.062 32.87Z" fill="#9EEF80"/>
<path d="M129.319 13.3224C130.972 15.0427 131.802 17.1841 131.921 19.5184C131.93 19.6695 131.833 19.8863 132.054 19.8513C132.242 19.145 132.766 18.4247 132.96 17.7351C133.139 17.1002 133.058 16.626 133.166 16.0624C133.717 13.1713 136.578 11.2482 136.36 8.17814C136.032 8.13898 135.778 8.30122 135.548 8.50682C134.512 9.42993 133.076 10.9615 132.05 11.9951C131.743 12.3042 130.749 13.7196 130.48 13.7937C130.243 13.8721 129.95 13.7756 129.836 13.5448C129.325 12.4986 130.909 9.2621 131.649 8.37535C132.671 7.15013 134.216 5.62 135.956 6.29975C136.088 4.82696 137.307 5.36825 137.823 6.38227C139.004 8.69984 138.82 10.8188 137.492 12.9979C136.919 13.9406 136.071 14.6679 135.53 15.6022C134.972 16.5673 134.781 17.6219 134.278 18.6471C133.842 19.5338 132.495 22.2766 131.854 20.1213C131.585 20.4471 131.594 20.8611 131.116 21.0066C130.171 21.2933 130.285 19.6471 130.132 19.0191C128.995 14.3448 123.523 12.0608 119.744 15.419C118.739 16.3113 117.815 17.454 118.493 18.8205C120.042 21.9367 123.348 21.0486 125.872 19.7898C126.552 19.4513 127.208 18.482 127.961 19.4387C128.733 20.4178 127.264 21.5856 126.4 21.9283C122.894 23.3186 117.854 22.899 115.993 19.1646C114.791 16.7477 116.856 13.2539 118.961 11.9573C119.274 11.7643 120.292 11.402 120.414 11.2594C120.717 10.9027 121.254 9.02293 121.289 8.51102C121.427 6.49696 119.85 3.94301 117.726 3.75139C115.011 3.50523 112.662 5.09131 111.447 7.41308C111.259 7.77393 110.693 8.99775 110.67 9.33343C110.637 9.85792 110.927 10.6426 110.819 11.2454C112.151 11.5111 114.915 13.7322 114.952 15.0917C114.962 15.4665 114.712 15.6651 114.353 15.6861C113.585 15.7323 112.713 14.5798 111.968 14.191C108.943 12.6063 104.022 15.7071 101.786 17.7687C100.778 18.6974 100.086 19.3184 100.182 20.8374C100.292 22.5661 101.968 23.8235 103.532 24.2165C108.427 25.4459 113.159 23.6529 117.995 23.7438C118.34 23.7508 119.42 23.8389 119.717 23.9046C120.605 24.099 120.741 24.8683 119.814 25.2879C119.161 25.583 117.125 26.0012 116.345 26.1215C113.233 26.6068 109.989 26.8194 106.826 26.7005C106.045 26.6712 105.217 26.4012 104.406 26.4194C103.352 26.4432 102.249 26.8837 101.18 26.9621C99.0004 27.1229 96.8961 26.583 94.7413 26.846C90.0209 27.4222 84.3177 29.0894 79.5581 28.0055C79.3114 27.9495 79.1039 27.6894 78.9875 27.681C78.7548 27.6642 77.6542 28.4866 77.3122 28.6474C74.9022 29.772 67.4424 29.737 65.0633 28.5104C61.8192 26.8362 62.5244 23.1563 64.5936 20.7898C68.2149 16.647 75.219 15.6861 79.1263 19.9828L79.3212 19.9856C80.8577 17.4918 82.8289 15.6036 85.3874 14.1602C87.8394 12.7769 89.7195 12.6678 92.3706 13.6791C89.7531 10.5083 91.6233 7.33335 94.5871 5.35705C97.7681 3.23529 102.144 3.29264 105.355 5.35705C105.703 5.58084 107.192 6.52353 106.356 6.90956C106.104 7.02565 103.836 6.09415 103.198 6.03261C100.858 5.80602 97.6882 6.67599 95.7465 7.98932C95.4941 8.15996 94.3796 9.02013 94.2674 9.19775C93.6562 10.1712 94.3964 13.6315 95.8025 13.6888C96.3984 13.7126 96.8933 13.1322 97.4204 13.6748C98.3681 14.6511 95.4857 15.4819 94.7917 15.356C95.8067 16.2078 96.24 17.5477 97.6139 17.9729C99.3859 13.9518 103.837 11.0873 108.242 10.9936C106.969 8.33059 107.205 5.74028 109.366 3.66048C113.248 -0.0753229 120.467 0.176432 122.888 5.44097C123.815 7.45643 123.469 8.96278 122.501 10.8594C123.696 10.7601 124.826 10.9726 125.998 11.1293C125.975 10.5908 126.092 10.0621 126.229 9.54742C126.779 7.483 128.026 4.00035 129.559 2.53736C135.84 -3.46007 144.539 2.01007 143.198 10.2412C142.831 12.5 141.143 14.9686 139.907 16.8876C139.765 17.1086 138.935 18.0932 138.934 18.1729C138.934 18.2582 139.314 18.5226 139.304 18.9632C139.274 20.338 137.857 21.3213 136.853 22.029C136.184 22.5004 133.787 24.1424 133.159 24.2487C132.05 24.4361 130.145 24.1284 128.88 24.1396C128.496 24.1438 128.172 24.2767 127.816 24.2851C127.372 24.2962 124.917 24.4571 125.054 23.8123C125.629 23.4836 126.388 23.6179 127.098 23.4361C128.094 23.1815 129.089 22.5633 130.157 22.3283C130.725 22.2038 131.545 22.2374 132.054 22.0738C132.374 21.9717 133.588 20.8821 134.194 20.5842C135.312 20.0345 137.41 19.6541 138.104 18.5813C139.696 16.1211 141.072 10.602 140.788 7.70819C140.46 4.33883 137.201 1.83944 133.925 3.40733C132.197 4.23393 130.1 7.02425 128.897 8.59074C128.625 8.946 127.154 11.1055 127.09 11.3615C127.061 11.4762 127.044 11.5727 127.129 11.6706C127.86 12.1014 128.726 12.7154 129.311 13.3238L129.319 13.3224ZM79.7586 26.8026C79.9703 26.9299 83.9616 26.1019 84.643 26.025C86.9352 25.7676 91.3345 25.9285 93.2776 24.9774C94.4889 24.3844 96.0184 21.7926 96.0184 20.4541C96.0184 17.931 93.8917 18.0121 92.0411 17.9715C90.1877 17.931 88.2909 17.8848 86.4263 18.2764C85.3524 18.5016 84.4047 18.9366 83.4583 19.4765C82.3522 20.1073 81.2951 21.2682 79.9997 21.3283C80.3586 22.3997 80.7512 25.4781 79.1263 25.6264C77.2421 25.7984 77.6402 23.7885 76.907 22.7353C74.6779 19.5268 67.6583 19.6303 65.7138 23.3787C64.5726 25.5788 65.7026 26.4544 67.8434 26.6781C69.9842 26.9019 73.8017 26.9117 76.0308 26.6935C77.0654 26.5914 78.5417 25.7984 79.5202 26.4404C79.6703 26.5383 79.7039 26.7691 79.7586 26.8026Z" fill="#9EEF80"/>
<path d="M51.9013 13.3984C54.1178 13.6837 55.3865 15.3103 57.0633 16.502C58.7709 13.5005 62.0599 12.5396 65.3699 12.9116C67.0648 13.1019 68.8635 14.1103 69.5351 15.7341C70.6665 18.4727 67.8387 15.8055 66.891 15.6894C65.3068 15.495 61.1584 16.66 60.0971 17.909C59.1228 19.0573 59.5279 20.8238 58.0741 21.3917C56.4086 22.0421 56.0076 20.7441 55.0459 19.856C52.8756 17.8503 49.7956 16.2516 46.7449 16.667C45.4144 16.8488 42.9092 18.7496 42.6372 20.0853C42.476 20.8784 42.9232 22.4854 42.1451 22.9484C40.5511 23.8981 39.8823 20.0392 40.045 19.0545C39.1239 18.993 38.5827 18.1958 37.6672 17.8713C35.9246 17.2517 34.2226 17.9608 32.7997 18.9944C31.6262 19.8462 31.1271 20.2126 31.3234 21.7847C31.4692 22.9582 32.2193 23.1554 33.2931 23.3092C37.3013 23.8841 41.4455 22.7763 45.4032 23.8421C46.5669 24.1554 47.6506 24.8212 48.7932 25.1569C52.2658 26.1751 57.0731 25.1932 60.8191 25.6394C61.2832 25.6953 62.9725 26.2632 62.7833 26.894C62.6837 27.2283 61.157 26.9429 60.7 26.9681C56.6848 27.1863 51.7933 28.4493 47.8763 27.5458C46.6061 27.2534 45.3037 26.5513 44.0167 26.431C40.8427 26.1345 37.3013 26.6087 34.06 26.4338C32.1828 26.3331 30.2944 25.8995 28.4143 25.7583C26.2946 25.5988 24.2141 25.5541 22.0915 25.3555C21.2882 25.2813 20.391 25.5471 19.6661 25.0911C19.5274 24.7932 19.5638 24.5023 19.7993 24.2715C20.0461 24.0295 20.5101 24.133 20.412 23.7442C19.0086 23.168 18.0343 21.7078 17.4286 20.3455C16.4346 18.1076 16.4697 16.881 18.3932 15.2194C21.535 12.506 27.5521 11.7983 30.0434 15.681C33.0885 13.783 36.6172 14.3886 39.2458 16.695C39.4856 16.9062 40.0604 17.7034 40.2525 17.7048C41.4946 15.2754 43.9831 13.5159 46.7113 13.1424C47.9071 12.9788 49.0764 13.1116 50.2736 13.1396C49.9063 12.2599 48.6964 10.8193 47.8398 10.4025C46.2514 9.6304 42.5699 9.38703 40.809 9.53389C39.9594 9.60522 36.5765 10.2486 36.2092 10.9885C36.1307 11.1451 36.8499 11.9228 36.0227 12.6753C35.075 13.5368 32.8866 12.541 32.5838 11.3997C32.0104 9.24437 34.5521 7.338 36.2891 6.63448C40.0716 5.10015 46.2612 4.85958 49.7016 7.3394C51.3756 8.54643 52.0555 11.4291 51.9041 13.3956L51.9013 13.3984ZM26.3072 15.7257C25.2992 15.7327 23.9603 16.0139 22.9986 16.3272C22.2387 16.5747 19.4993 17.7258 19.6367 18.6867C19.6591 18.8391 20.4078 20.4504 20.5438 20.5944C20.8915 20.9651 22.6299 21.6267 23.1514 21.5889C25.3595 21.4308 27.8886 18.9147 28.72 16.9663C28.0344 16.1803 27.3909 15.7173 26.3086 15.7257H26.3072Z" fill="#9EEF80"/>
<path d="M68.2994 6.96995C70.5159 4.80203 73.7264 4.09711 76.7237 4.80483C79.316 5.41744 82.8783 8.31546 83.6732 10.889C83.9046 11.6373 84.5481 14.8891 83.4097 14.9926C82.7073 15.057 82.5433 13.6905 82.3119 13.1856C81.8773 12.2415 81.5254 11.4345 80.7361 10.7309C78.2028 8.46931 74.6559 7.45948 71.7314 9.65677C70.771 10.3785 70.1023 11.8708 68.8952 12.0611C67.262 12.317 67.0026 11.1505 67.0867 9.78824C66.2596 9.94629 65.738 10.2512 64.8814 9.90852C64.0248 9.56585 63.8931 8.56861 64.5394 7.97978C65.1029 7.46787 65.2698 8.35741 65.5165 8.29867C67.7246 7.30562 65.6665 6.47343 64.3136 6.31399C62.7224 6.12657 58.4451 7.15877 57.3333 8.31126C55.9201 9.77425 58.4983 9.52949 58.0161 11.0023C57.6263 12.1925 55.0229 11.1645 54.4397 10.4904C53.9911 9.97147 53.7499 8.92947 53.7653 8.25252C53.8411 4.83141 58.6119 2.4467 61.6359 2.54181C63.9057 2.61314 68.0905 4.34327 68.298 6.96995H68.2994Z" fill="#9EEF80"/>
<path d="M7.86503 6.31881C8.01363 6.28804 8.18467 6.25867 8.31505 6.35377C8.75246 8.10629 7.15283 9.58187 7.87764 11.3554C8.97818 14.052 11.0166 15.3905 12.8153 17.4339C14.4668 19.3095 15.8211 21.4858 17.1277 23.6048C17.1418 25.5042 14.9421 24.1503 14.0729 23.56C9.51372 20.4578 4.94756 13.5722 6.78972 7.93844C6.95095 7.44332 7.29864 6.43769 7.86643 6.32021L7.86503 6.31881Z" fill="#9EEF80"/>
<path d="M11.2259 9.14598C13.3471 8.66065 17.2333 11.9419 17.1674 14.0203C17.1422 14.8063 16.0935 15.2371 15.3841 14.8693C14.4715 14.3951 13.1522 12.2566 12.2087 11.4635C11.8246 11.1405 10.8824 10.7055 10.6651 10.4537C10.1997 9.91524 10.6217 9.28305 11.2259 9.14458V9.14598Z" fill="#9EEF80"/>
<path d="M72.9057 12.0355C72.5398 11.6508 72.8104 10.8886 73.0235 10.4788C73.7595 10.2242 73.524 10.9921 73.8772 11.0074C75.0044 11.0564 75.01 9.51788 75.9662 9.98782C77.0835 10.5375 75.6395 12.5599 74.1548 12.4774C73.9137 12.4634 73.0487 12.1851 72.9071 12.0355H72.9057Z" fill="#9EEF80"/>
<path d="M46.0032 18.5423C46.679 17.8751 48.2576 19.1535 47.4262 20.4333C46.4883 21.8767 44.3573 20.6654 45.291 19.7773C45.4803 19.5983 45.8294 19.5689 45.9121 19.457C45.9696 19.3801 45.7032 18.8374 46.0032 18.5409V18.5423Z" fill="#9EEF80"/>
<path d="M113.091 21.8635C113.291 22.0887 114.854 20.5963 115.248 21.283C115.571 22.5572 112.578 23.9279 112.178 22.1712C111.778 20.4145 113.288 19.7487 113.092 21.8635H113.091Z" fill="#9EEF80"/>
<path d="M127.047 15.725C127.644 16.732 126.52 18.0439 125.436 17.946C124.781 17.8873 123.918 17.3977 124.12 16.6327L125.237 16.746C125.958 16.3725 126.098 15.1179 127.047 15.7264V15.725Z" fill="#9EEF80"/>
<path d="M58.5825 66.8479C58.9638 67.122 58.504 67.6591 58.1745 67.792C56.0912 68.6311 50.6923 65.9289 48.194 65.7415C47.1607 65.6632 46.028 65.852 44.9947 65.7122C43.9615 65.5723 40.0528 63.831 39.15 63.2225C37.9078 62.3848 38.5976 61.1875 39.8467 61.1721C41.5291 61.1511 43.9671 62.4631 45.784 62.6435C46.4906 62.7134 47.2126 62.6043 47.9178 62.6617C50.9783 62.9107 54.1495 65.4464 57.2324 66.5206C57.517 66.6199 58.5054 66.7919 58.5825 66.8479Z" fill="#9EEF80"/>
<path d="M46.6114 55.7181C48.0218 55.5712 49.4994 56.1811 50.879 56.216C51.2968 56.2272 51.8085 56.0482 52.365 56.0776C56.3901 56.286 59.6454 58.065 63.6536 58.2329C63.9788 58.3098 64.3784 58.7378 64.363 59.0777C64.2396 59.9644 63.4517 59.9952 62.7129 60.1057C59.4954 60.5896 56.8976 59.4973 53.8357 59.17C52.4295 59.0203 50.9869 59.121 49.5738 58.8595C48.6863 58.6958 47.8283 58.3014 46.9437 58.1294C46.2834 58.0007 44.6599 58.2608 44.6389 57.0916C44.6206 56.1279 45.8516 55.7964 46.6114 55.7167V55.7181Z" fill="#9EEF80"/>
<path d="M30.5977 45.3724C31.0393 45.2773 31.6421 45.4801 32.0894 45.5738C37.0845 46.6088 41.0801 50.0551 45.9982 51.4244C46.6402 51.6034 48.6605 51.8272 49.0642 52.1223C50.1942 52.9476 46.6865 53.4986 46.3024 53.5308C40.9483 53.9895 38.1696 51.0342 34.0871 48.6789C32.8184 47.9474 31.4234 47.5026 30.1028 46.883C29.528 46.3501 29.8953 45.5221 30.5977 45.371V45.3724Z" fill="#9EEF80"/>
<path d="M58.9917 75.7102C60.5409 75.6179 62.4069 76.4501 63.963 76.7117C67.4413 77.2949 71.2798 76.583 74.8156 76.4753C75.8404 76.4431 77.9265 76.5662 76.0255 77.5481C72.7659 77.9481 69.5232 79.281 66.2076 79.1705C64.4818 79.1132 62.9719 78.4866 61.096 78.6222C60.1441 78.6908 59.2567 79.0642 58.2739 79.0376C57.6388 79.0195 54.3414 78.3019 54.1059 77.8236C53.2844 76.1648 56.7402 76.1676 57.4608 76.0683C57.9318 76.0026 58.4618 75.7438 58.9931 75.7116L58.9917 75.7102Z" fill="#9EEF80"/>
<path d="M38.9378 39.4732C39.4985 39.4215 40.836 39.8327 41.4515 39.9893C43.8881 40.6103 46.5392 41.809 49.0318 42.0887C50.3511 42.237 51.7068 42.0384 53.0288 42.1279C55.1373 42.2691 56.4075 42.8608 58.3086 43.437C58.6857 43.5517 59.2086 43.3111 59.4007 43.8328V44.1797C59.0614 45.3462 55.9266 44.4664 55.0462 44.4091C52.3573 44.2342 50.0062 44.7503 47.3116 44.2077C44.2175 43.5839 41.4683 41.9544 38.5242 40.8971C37.8344 40.4872 38.1625 39.5446 38.9378 39.4732Z" fill="#9EEF80"/>
<path d="M99.459 52.7736C99.9091 52.7638 100.436 53.1359 100.436 53.603C100.436 54.5737 96.829 56.8059 96.0677 57.5556C95.2097 58.399 94.7471 59.5221 93.6311 60.2243C92.5881 60.8802 87.8214 61.8985 86.5036 61.9796C85.3203 62.0523 84.7357 60.8858 85.7353 60.2634C86.9522 59.5067 89.2752 59.2284 90.6646 58.606C92.1745 57.9291 92.5166 56.0003 93.9451 55.0352C94.712 54.5163 97.4402 53.438 98.43 53.0687C98.6978 52.9694 99.1997 52.7806 99.4604 52.775L99.459 52.7736Z" fill="#9EEF80"/>
<path d="M34.1331 67.6255C35.0458 67.3555 36.0201 67.4786 36.9272 67.7206C37.5315 67.8814 38.1077 68.2842 38.6698 68.3975C41.1976 68.908 43.4421 69.5235 45.8675 70.4759C47.9143 71.2788 49.1649 72.1319 51.4543 72.5515C51.8987 72.6327 53.8642 72.5921 53.7633 73.1767C53.3904 73.7656 52.6866 73.6844 52.0837 73.6677C50.9566 73.6341 49.699 73.3292 48.5915 73.2621C44.5454 73.0145 42.2476 73.4355 38.6642 70.9543C37.5469 70.1808 37.1417 68.9052 35.8561 68.522C35.2365 68.3374 34.0728 68.5136 34.1331 67.6269V67.6255Z" fill="#9EEF80"/>
<path d="M49.0958 49.0005C49.557 48.5418 52.2614 48.6397 53.0297 48.5656C54.6826 48.4047 56.6663 47.9473 58.2828 48.0243C60.0254 48.1082 61.9125 48.8327 63.6593 48.967C64.4864 49.0299 67.1151 48.7404 67.5525 49.2425C68.3853 50.1992 66.6735 50.7209 66.0104 50.9139C62.0288 52.0762 58.9964 50.4104 55.0429 50.5852C53.3788 50.153 51.1286 50.5782 49.5416 50.1698C49.0187 50.0355 48.6878 49.4075 49.0958 49.0019V49.0005Z" fill="#9EEF80"/>
<path d="M100.651 77.0742C101.164 77.1763 101.319 77.5484 100.84 77.8784C100.117 78.3778 98.2412 78.8491 97.3019 79.3135C96.5477 79.6855 95.7794 80.3205 95.0224 80.6632C93.0905 81.5387 87.1209 82.0828 84.9044 81.9877C84.0801 81.9527 82.5015 81.8436 81.7388 81.6562C80.1546 81.2688 80.7504 79.7149 82.2519 79.4645C83.9301 79.1834 86.2251 79.5666 88.0014 79.4309C89.2561 79.3344 90.6006 78.9176 91.8988 78.8911C93.3596 78.8603 93.9288 79.0799 95.4682 78.6939C97.1912 78.2617 98.9086 77.4756 100.65 77.077L100.651 77.0742Z" fill="#9EEF80"/>
<path d="M86.424 47.1257C87.4082 46.9928 89.0835 47.2418 88.0727 48.5033C87.0619 49.7649 82.2504 51.9552 80.5652 52.2853C78.2576 52.7385 74.7205 53.2658 72.3988 53.3972C71.9194 53.4238 70.631 53.5665 70.4726 53.035C70.345 52.6042 70.5679 52.2643 70.9562 52.0923C73.1881 51.572 75.4831 51.2755 77.6814 50.6153C80.6606 49.723 83.3201 47.5439 86.424 47.1257Z" fill="#9EEF80"/>
<path d="M119.507 38.9483C120.109 39.7203 118.372 40.3833 117.869 40.7889C117.461 41.119 117.131 41.5861 116.71 41.9148C113.834 44.1736 109.82 44.2869 106.291 44.1457C105.732 44.1233 104.348 44.0757 103.904 43.9778C103.053 43.789 103.061 42.8799 103.904 42.6939C104.746 42.5079 106.158 42.6379 107.086 42.5148C108.094 42.3806 109.786 41.975 110.705 41.5624C112.38 40.8085 114.047 38.9315 116.042 38.5664C116.758 38.435 119.042 38.3538 119.506 38.9483H119.507Z" fill="#9EEF80"/>
<path d="M74.0547 70.2133C76.3932 70.0818 77.997 70.9098 80.0691 71.1112C81.6028 71.2609 85.1456 70.8147 86.3737 71.6651C87.0452 72.1294 86.6597 72.9323 85.9587 73.0973C84.7811 73.3728 82.1173 73.6386 80.8822 73.668C78.4821 73.7253 76.2179 72.3812 73.6173 72.3155C72.7593 72.2931 70.4321 72.9351 70.7433 71.4791C70.9438 70.5378 73.2584 70.258 74.0547 70.2133Z" fill="#9EEF80"/>
<path d="M110.232 60.4099C111.236 60.3512 111.655 61.0043 111.191 61.9037C110.878 62.5065 108.399 64.2506 107.712 64.6073C105.708 65.6479 101.015 66.7598 98.7652 66.827C98.5661 66.8325 98.203 66.8619 98.0824 66.6941C97.5847 66.0073 99.2461 65.5388 99.6302 65.2674C100.192 64.8702 100.609 64.1178 101.245 63.7919C102.147 63.3289 103.579 63.3988 104.651 63.0296C106.243 62.4799 108.524 60.5092 110.232 60.4113V60.4099Z" fill="#9EEF80"/>
<path d="M102.028 44.7109C102.829 44.6032 105.756 44.4536 105.694 45.6704C105.641 46.7376 103.747 46.7656 103.005 47.0285C102.067 47.3614 100.993 48.181 99.9994 48.5922C98.2385 49.3209 94.5794 50.244 92.705 50.3153C92.1064 50.3377 91.3956 50.0454 91.5891 49.3363C91.7769 48.6411 95.0379 48.0383 95.8706 47.6929C97.832 46.8816 99.8354 45.006 102.028 44.7109Z" fill="#9EEF80"/>
<path d="M93.0115 64.4249C93.8779 64.2389 94.2158 65.0697 93.8372 65.7942C92.5404 68.2824 85.6007 68.446 83.1628 68.2922C82.365 68.2418 79.3943 67.888 78.9176 67.4292C78.5447 67.0697 78.577 66.7285 78.9218 66.3452C79.5303 65.6683 81.5912 66.2529 82.4828 66.2865C85.3021 66.3928 88.6023 66.1844 91.2703 65.2459C91.7609 65.0739 92.7143 64.4892 93.0115 64.4263V64.4249Z" fill="#9EEF80"/>
<path d="M49.6 77.558C49.6883 78.2139 48.8387 78.4181 48.3088 78.4797C46.89 78.6475 43.3992 78.7734 42.0168 78.6139C41.0088 78.4978 39.3896 77.6782 38.4825 77.1747C38.003 76.9104 36.3571 76.0642 36.4385 75.5061C37.4689 73.6026 40.1424 75.1061 41.7995 75.4768C43.0753 75.7607 44.4927 75.8278 45.7054 76.1439C46.9181 76.46 48.32 77.2419 49.6028 77.558H49.6Z" fill="#9EEF80"/>
<path d="M66.994 43.8298C66.1725 43.0927 66.8734 42.199 67.7553 41.9221C69.5652 41.3528 71.8644 41.1836 73.7444 41.0521C74.6851 40.9864 76.1922 40.6507 77.0867 40.9402C77.639 41.1192 77.5241 42.227 77.0881 42.6438C76.6226 43.0885 74.1131 44.0662 73.415 44.2131C72.1882 44.4718 67.8913 44.6341 66.994 43.8284V43.8298Z" fill="#9EEF80"/>
<path d="M107.541 68.8629C109.743 68.4853 110.266 69.8951 108.654 71.3147C106.772 72.9721 102.045 74.3582 99.5692 74.3092C99.1164 74.3009 98.5696 73.9988 98.7168 73.4869C98.8753 72.9344 101.002 72.67 101.596 72.4588C103.622 71.7357 105.544 69.2056 107.542 68.8629H107.541Z" fill="#9EEF80"/>
<path d="M69.0412 59.3064C69.2711 59.2392 69.8291 59.8141 70.2847 59.94C72.9975 60.6869 76.8669 59.4476 79.6652 59.3008C81.7779 60.0533 80.254 61.368 78.9207 61.9191C76.6538 62.8548 74.4303 62.4743 72.1409 61.8449C71.3502 61.6267 69.5977 61.0869 69.1253 60.4253C68.9571 60.1889 68.6136 59.4309 69.0412 59.3064Z" fill="#9EEF80"/>
<path d="M25.216 38.1279C25.6253 38.0356 26.2043 38.0916 26.6305 38.1363C27.6259 38.2398 31.1518 38.9811 31.9832 39.3727C33.2211 39.9546 33.2197 41.6889 31.9888 42.0666C30.5448 42.5085 27.3161 41.3616 25.9324 40.7127C25.2496 40.3924 24.2542 40.0511 24.3173 39.114C24.3439 38.7224 24.8276 38.2161 25.216 38.1279Z" fill="#9EEF80"/>
<path d="M102.63 58.3343C101.921 57.2098 103.554 56.4154 104.391 55.9272C105.451 55.3104 109.549 53.2055 110.558 52.9565C111.115 52.8194 111.549 52.7845 111.946 53.2656C112.133 53.7286 111.995 54.1258 111.683 54.4796C111.064 55.1804 108.743 56.586 107.84 56.9539C107.33 57.1623 106.779 57.235 106.291 57.421C105.518 57.7161 103.29 58.9959 102.629 58.3329L102.63 58.3343Z" fill="#9EEF80"/>
</svg>
