<svg width="825" height="162" viewBox="0 0 825 162" fill="none" xmlns="http://www.w3.org/2000/svg">
<path d="M106.05 136.475C106.225 137.35 106.4 138.225 106.4 139.1C106.225 139.275 106.225 139.275 106.225 139.45C106.225 139.625 106.225 139.625 106.225 139.8C106.05 139.975 106.05 140.15 105.875 140.325C105.7 140.675 105.35 141.025 105.175 141.375C105 141.375 104.825 141.375 104.825 141.55C104.65 141.55 104.475 141.725 104.475 141.725C104.125 141.9 103.95 141.9 103.775 142.075C103.425 142.075 103.25 142.075 103.075 142.25C102.9 142.25 102.55 142.25 102.375 142.25C101.675 142.425 100.8 142.425 100.275 142.425C99.7497 142.425 99.3996 142.6 98.8746 142.6C98.5246 142.6 98.1746 142.6 97.8246 142.6C96.9496 142.6 96.2497 142.6 95.5497 142.6C94.1497 142.775 92.7496 143.3 90.9996 143.3C90.2996 143.3 89.5996 143.3 88.7246 143.125C88.3746 143.125 87.8496 143.125 87.4996 142.95C87.3246 142.95 87.1496 142.95 86.9746 142.95C86.7996 142.775 86.6246 142.775 86.4496 142.775L86.2747 142.6H86.0997C85.9247 142.425 85.7496 142.25 85.5746 142.25C84.8746 141.55 84.3497 140.85 83.9997 139.975C83.6497 139.275 83.2997 138.4 83.1247 137.35C82.9497 136.65 82.7747 135.775 82.5997 135.075C82.4247 134.725 82.2497 134.375 82.2497 134.025L82.0746 133.85C82.0746 133.675 82.0746 133.5 82.0746 133.5C81.8996 133.325 81.8997 133.15 81.7247 132.8C81.1997 131.4 80.4997 130 79.7997 128.25C79.6247 127.55 79.4497 126.675 79.2747 125.975C79.0997 125.625 79.0997 125.1 78.9247 124.75V124.575C78.9247 124.4 78.9247 124.4 78.7497 124.4L78.5746 124.225C78.5746 124.225 78.5746 124.225 78.5746 124.4H78.2247C78.0497 124.4 77.8746 124.4 77.6996 124.4C76.8246 124.4 75.9496 124.4 75.0746 124.4C73.4996 124.4 71.9247 124.05 70.1747 124.05C68.5997 124.05 67.0247 124.225 65.2747 124.225C63.6997 124.225 62.1247 124.05 60.3747 124.05C58.7997 124.05 57.2247 124.225 55.4747 124.225C54.5997 124.225 53.8997 124.225 53.0247 124.225H51.7997L51.6247 124.05H51.4497C51.4497 124.225 51.4497 124.225 51.4497 124.225C51.2747 124.225 51.2747 124.225 51.2747 124.4V124.575V124.75L51.0997 124.925C51.0997 125.8 50.9247 126.675 50.7497 127.375C50.3997 129.125 50.0497 130.7 49.6997 132.275C49.1747 133.85 48.6497 135.425 48.2997 137L48.1247 137.7L47.9497 138.225L47.7747 138.575V138.925C47.5997 139.275 47.5997 139.45 47.4247 139.625C47.2497 140.15 47.0747 140.675 46.7247 141.025C46.5497 141.375 46.3747 141.55 46.0247 141.725C45.8497 141.9 45.6747 142.25 45.3247 142.425C45.1497 142.425 45.1497 142.6 44.9747 142.6L44.7997 142.775H44.6247C44.4497 142.95 44.2747 142.95 44.0997 142.95L43.7497 143.125C43.5747 143.125 43.3997 143.3 43.0497 143.3C42.8747 143.3 42.6997 143.475 42.3497 143.475C41.4747 143.65 40.5997 143.65 39.8997 143.825C38.1497 144 36.3997 144.35 34.8247 144.35C33.0747 144.35 31.3247 144.525 29.5747 144.35C28.8747 144.175 28.1747 144.175 27.4747 144C27.1247 144 26.7747 143.825 26.2497 143.825C25.8997 143.65 25.5497 143.475 25.1997 143.3C24.4997 142.95 23.9747 142.6 23.6247 142.075C23.2747 141.725 23.0997 141.2 22.9247 140.85C22.9247 140.85 22.9247 140.675 22.9247 140.5C22.7497 140.325 22.7497 140.15 22.7497 139.975C22.7497 139.45 22.5747 138.925 22.7497 138.4C22.7497 137.35 22.7497 136.475 22.9247 135.775C23.2747 134.025 23.4497 132.275 23.9747 130.7C24.4997 129.125 25.0247 127.55 25.5497 125.975C25.7247 125.275 26.0747 124.575 26.4247 123.875C26.5997 123.525 26.7747 123 26.7747 122.65C26.9497 122.475 26.9497 122.3 26.9497 122.125C27.1247 121.95 27.1247 121.775 27.2997 121.6C27.6497 120.025 28.1747 118.45 28.5247 116.875C29.0497 115.3 29.2247 113.725 29.7497 112.15C30.0997 110.575 30.6247 109.175 30.9747 107.6C31.4997 106.025 31.6747 104.45 32.1997 102.875C32.5497 101.3 32.8997 99.7246 33.2497 98.1496C33.5997 96.5746 33.7747 94.9996 34.1247 93.4246C34.6497 91.8496 35.1747 90.2746 35.5247 88.6996C35.6997 87.8246 35.8747 87.1246 36.0497 86.2496C36.2247 85.5496 36.3997 84.6746 36.7497 83.9746C37.0997 82.3996 37.2747 80.8246 37.6247 79.2496C38.1497 77.6746 38.6747 76.0996 39.0247 74.5246C39.3747 72.9496 39.8997 71.3746 40.4247 69.7996C40.7747 68.2246 41.1247 66.6496 41.4747 65.0746C41.8247 63.4996 41.9997 61.9246 42.5247 60.3496C42.8747 58.7746 43.0497 57.1996 43.3997 55.6246C43.7497 54.0496 44.2747 52.4746 44.6247 50.8996C44.7997 50.0246 44.9747 49.3246 45.3247 48.4496L45.8497 46.1746C46.3747 44.5996 46.7247 43.0246 47.0747 41.4496C47.4247 40.0496 48.1247 38.4746 48.4747 36.8996C48.8247 35.3246 49.1747 33.7496 49.5247 32.1746C49.8747 30.5996 50.0497 28.8496 50.3997 27.2746C50.9247 25.6996 51.4497 24.1246 51.9747 22.5496L52.3247 21.8496C52.3247 21.8496 52.3247 21.6746 52.4997 21.4996V21.3246C52.6747 21.1496 52.6747 21.1496 52.6747 20.9746C53.0247 20.4496 53.5497 19.9246 54.0747 19.5746C54.5997 19.2246 55.2997 18.8746 55.8247 18.8746C56.3497 18.6996 56.8747 18.5246 57.3997 18.5246H58.6247H59.8497C60.7247 18.5246 61.5997 18.5246 62.2997 18.5246C64.0497 18.5246 65.6246 18.6996 67.1996 18.6996H67.5497H67.8997C68.7747 18.5246 69.8246 18.5246 70.6996 18.8746C71.0496 19.0496 71.2246 19.0496 71.5746 19.2246C71.7496 19.3996 71.9247 19.5746 72.2747 19.7496C72.4497 19.9246 72.6247 20.0996 72.7997 20.2746C72.9747 20.4496 73.1496 20.6246 73.3246 20.7996C73.8496 21.8496 74.1997 22.7246 74.3747 23.5996C74.5497 24.4746 74.5497 25.3496 74.8997 26.0496C74.8997 26.3996 75.0747 26.7496 75.2497 27.2746L75.5997 28.3246C75.7747 29.1996 76.1247 29.8996 76.2997 30.7746C76.8247 32.3496 77.3496 33.7496 77.6996 35.3246C78.2246 36.8996 78.9247 38.4746 79.2747 39.8746C79.7997 41.4496 79.9746 43.1996 80.3246 44.7746C80.8496 46.3496 81.3747 47.7496 81.8997 49.3246C82.2497 50.8996 82.9497 52.4746 83.4747 53.8746C83.8247 55.4496 84.1747 57.1996 84.5247 58.5996C85.0497 60.1746 85.3997 61.7496 85.7497 63.3246C86.2747 64.8996 86.6246 66.4746 86.9746 68.0496C87.4996 69.6246 88.1996 71.0246 88.7246 72.5996C89.2496 74.1746 89.4247 75.7496 89.7747 77.3246C90.2997 78.8996 91.1747 80.2996 91.5247 81.8746C91.8747 82.7496 92.0496 83.4496 92.2246 84.3246C92.2246 84.6746 92.3997 85.0246 92.3997 85.3746C92.5747 85.7246 92.7496 86.0746 92.7496 86.4246C93.0996 87.2996 93.2746 87.9996 93.6246 88.8746C93.7996 89.5746 93.9746 90.4496 94.3246 91.1496C94.8496 93.0746 95.5496 94.4746 96.0746 95.8746C96.5996 97.7996 96.9497 99.3746 97.2997 100.775C97.8247 102.525 98.3496 104.1 98.6996 105.5C99.2246 107.075 99.7497 108.65 100.275 110.4C100.625 111.8 100.625 113.375 101.15 115.3C101.5 116.7 102.2 118.275 102.725 120.2C103.25 122.3 103.6 124.05 103.95 125.45C104.125 126.5 104.3 127.375 104.475 128.25C104.475 129.125 104.65 130 104.825 130.875C105 131.575 105.175 132.45 105.35 133.325C105.35 133.675 105.35 134.2 105.525 134.725C105.525 135.075 105.7 135.6 105.7 136.125V136.3C105.875 136.475 105.875 136.475 105.875 136.475C105.875 136.65 105.875 136.65 105.875 136.65C105.875 136.65 106.05 136.3 106.05 136.475ZM55.6497 103.225C55.8247 103.225 55.8247 103.05 55.8247 103.225C55.8247 103.05 56.6997 102.7 57.0497 102.525C57.3997 102.35 57.9247 102.525 58.0997 102.35C58.6247 102.35 58.9747 102.35 59.3247 102.35C59.8497 102.35 61.2497 102 61.7747 102C62.1247 102 62.6497 101.825 62.9997 101.825C63.3497 101.825 63.8747 101.825 64.2247 101.825C64.7497 101.65 66.4997 101.65 66.8497 101.65C67.3747 101.65 68.9497 101.65 69.4747 101.65C69.8247 101.65 71.2247 101.65 71.3997 101.65H71.5746C71.5746 101.65 71.5747 101.65 71.7497 101.65C71.7497 101.65 71.7497 101.65 71.7497 101.475V101.3V101.125V100.95L71.5746 100.775C71.3996 100.25 71.3997 99.8996 71.3997 99.3746C71.2247 99.0246 71.2247 98.6746 71.0497 98.1496C71.0497 97.7996 70.5247 96.0496 70.3497 95.6996C70.3497 95.3496 69.9996 94.9996 69.8246 94.4746C69.8246 94.1246 69.6497 93.7746 69.4747 93.2496C69.2997 92.8996 69.1246 92.5496 68.9496 92.1996C68.9496 91.6746 68.9497 91.1496 68.7747 90.7996C68.5997 90.4496 68.4247 90.0996 68.2497 89.5746C68.2497 89.2246 68.2496 88.8746 68.0746 88.3496C67.8996 87.9996 67.1997 85.1996 67.0247 84.6746C67.0247 84.3246 67.0247 83.9746 66.8497 83.4496C66.6747 83.0996 66.4997 82.7496 66.4997 82.2246C66.3247 81.8746 66.3247 81.5246 66.1497 80.9996C65.9747 80.6496 65.4496 79.0746 65.4496 78.7246C65.2746 78.1996 65.0997 77.8496 64.9247 77.4996C64.7497 76.9746 64.2247 75.3996 64.2247 75.0496C64.0497 74.6996 63.6997 72.9496 63.5247 72.5996C63.5247 72.2496 63.1747 71.8996 62.9997 71.3746C62.9997 71.1996 62.8247 71.0246 62.8247 70.8496C62.6497 71.1996 61.9497 73.1246 61.9497 73.2996C61.7747 73.6496 61.0747 75.2246 61.0747 75.5746C60.8997 76.0996 60.8997 76.4496 60.7247 76.7996C60.5497 77.3246 60.5497 77.6746 60.3747 78.0246C60.3747 78.5496 59.8497 80.1246 59.6747 80.4746C59.4997 80.8246 59.4997 81.3496 59.4997 81.6996C59.3247 82.0496 58.9747 83.7996 58.7997 84.1496C58.7997 84.4996 58.4497 84.8496 58.4497 85.3746C58.2747 85.7246 58.0997 86.0746 57.9247 86.5996C57.9247 86.9496 57.5747 88.5246 57.3997 89.0496C57.3997 89.3996 57.2247 91.1496 57.0497 91.4996C57.0497 91.8496 56.6997 92.1996 56.6997 92.7246C56.5247 93.2496 56.1747 94.8246 56.1747 95.1746C55.9997 95.6996 55.9997 96.0496 55.9997 96.5746C55.8247 96.9246 55.1247 99.8996 54.9497 100.25C54.9497 100.425 54.7747 100.6 54.7747 100.775C54.7747 100.775 54.7747 100.775 54.7747 100.95C54.5997 100.95 54.5997 100.95 54.5997 100.95C54.5997 101.125 54.5997 101.3 54.5997 101.3C54.4247 101.475 54.4247 101.65 54.4247 101.825C54.4247 102 54.5997 102.175 54.5997 102.35C54.7747 102.525 54.7747 102.7 54.9497 102.875C55.1247 103.05 55.4747 103.225 55.6497 103.225ZM206.959 34.9746C207.134 35.8496 207.134 36.7246 207.134 37.5996C206.959 38.4746 206.784 39.3496 206.434 40.0496C205.734 40.9246 204.859 41.6246 203.984 41.9746C203.109 42.3246 202.409 42.4996 201.534 42.6746C201.359 42.6746 201.184 42.6746 200.834 42.6746C200.659 42.6746 200.484 42.6746 200.134 42.6746C199.784 42.8496 199.259 42.6746 198.909 42.6746C198.034 42.6746 197.334 42.6746 196.634 42.6746C195.059 42.6746 193.659 43.1996 191.734 43.1996C190.334 43.1996 188.759 42.8496 186.659 42.6746C185.259 42.6746 183.684 42.6746 181.759 42.4996C181.059 42.4996 180.184 42.4996 179.309 42.4996C179.134 42.4996 178.959 42.4996 178.784 42.4996C178.609 42.4996 178.609 42.4996 178.609 42.4996C178.434 42.6746 178.434 42.6746 178.434 42.6746C178.434 42.8496 178.434 43.0246 178.434 43.0246V43.1996L178.609 43.5496C178.609 43.8996 178.609 44.0746 178.609 44.2496C178.609 45.1246 178.609 45.9996 178.434 47.0496C178.434 47.3996 178.434 47.9246 178.259 48.2746C178.259 48.7996 178.259 49.1496 178.084 49.4996C177.909 50.3746 177.909 51.2496 177.909 52.1246C177.734 53.6996 177.909 55.4496 177.734 57.1996C177.734 58.9496 177.384 60.6996 177.384 62.4496C177.384 64.1996 177.559 65.9496 177.559 67.6996C177.559 68.5746 177.559 69.4496 177.384 70.3246C177.384 70.6746 177.384 71.1996 177.384 71.5496C177.384 71.8996 177.384 72.4246 177.384 72.7746C177.384 74.5246 177.559 76.2746 177.559 78.0246C177.559 79.7746 177.559 81.5246 177.559 83.2746C177.559 85.0246 177.909 86.7746 177.909 88.5246C177.909 90.2746 177.909 91.8496 177.909 93.5996C177.909 95.3496 177.909 97.0996 177.909 98.8496C177.909 100.6 178.084 102.35 178.084 104.1C178.259 105.85 178.084 107.6 178.084 109.35C178.084 111.1 178.259 112.85 178.259 114.6C178.259 116.35 178.434 118.1 178.434 119.675C178.434 121.6 178.434 123.35 178.434 124.925C178.434 126.85 178.434 128.6 178.259 130.175C178.259 131.925 178.434 133.675 178.259 135.425C178.259 135.775 178.259 136.3 178.259 136.825L178.084 137.35V137.875V138.05V138.4C177.909 138.75 177.909 139.1 177.734 139.45C177.559 139.8 177.209 140.15 176.859 140.325C176.509 140.675 176.159 140.85 175.809 141.025C175.459 141.2 175.284 141.375 174.934 141.375C174.409 141.55 173.884 141.725 173.359 141.725C173.359 141.725 173.184 141.725 173.009 141.725H172.834L172.134 141.9C171.434 141.9 170.559 142.075 169.684 142.25C167.934 142.6 166.184 143.125 164.434 143.3C163.559 143.475 162.684 143.475 161.634 143.475C161.459 143.65 161.109 143.65 160.934 143.65H160.234C159.884 143.65 159.359 143.475 158.834 143.475C158.309 143.3 157.784 143.3 157.259 142.95C156.559 142.775 156.034 142.425 155.684 142.075C155.159 141.725 154.634 141.2 154.284 140.5C154.109 139.975 153.934 139.45 153.759 138.925C153.584 138.4 153.409 137.875 153.409 137.35C153.409 137.35 153.409 137.175 153.409 137C153.409 136.825 153.409 136.825 153.409 136.65V135.95C153.409 135.6 153.234 135.075 153.234 134.725C153.234 134.2 153.234 133.85 153.234 133.325C153.234 131.75 153.234 130 153.234 128.25C153.234 126.5 152.884 124.75 152.884 123C152.884 121.425 153.059 119.675 153.059 117.925C153.059 116.175 152.884 114.425 152.884 112.675C152.884 111.1 152.709 109.35 152.534 107.6C152.534 105.85 152.709 104.1 152.709 102.35C152.709 100.775 152.884 99.0246 152.884 97.2746C152.884 95.5246 152.884 93.7746 152.884 92.0246C152.884 90.4496 152.709 88.6996 152.709 86.9496C152.709 85.1996 152.534 83.4496 152.534 81.6996C152.534 80.1246 152.534 78.3746 152.534 76.6246C152.534 74.8746 152.709 73.1246 152.709 71.3746C152.709 69.7996 152.534 68.0496 152.534 66.2996C152.534 64.5496 153.059 62.7996 153.059 61.0496C153.059 60.1746 153.059 59.2996 153.059 58.5996C153.059 57.7246 153.059 56.8496 153.059 55.9746C153.059 55.0996 153.059 54.2246 152.884 53.3496C152.884 52.4746 152.884 51.5996 152.884 50.7246C152.884 49.8496 152.884 48.9746 153.059 48.0996C153.059 47.2246 153.059 46.3496 153.059 45.6496C153.234 45.1246 153.234 44.7746 153.234 44.2496V43.7246V43.5496C153.234 43.3746 153.234 43.3746 153.234 43.3746C153.059 43.3746 153.059 43.3746 153.059 43.3746H152.884H152.709L151.484 43.5496C150.609 43.5496 149.734 43.5496 148.859 43.7246C147.109 43.7246 145.359 43.5496 143.609 43.5496C142.034 43.5496 140.284 43.8996 138.534 43.8996C136.784 43.7246 135.034 43.3746 133.284 43.3746C131.534 43.1996 129.784 43.1996 128.034 43.0246C127.509 43.0246 126.984 42.8496 126.459 42.8496C126.284 42.6746 126.284 42.6746 126.109 42.6746C125.934 42.6746 125.934 42.6746 125.759 42.4996H125.584C125.584 42.4996 125.409 42.4996 125.409 42.3246C125.409 42.3246 125.409 42.3246 125.234 42.3246C125.234 42.3246 125.234 42.3246 125.234 42.1496C125.059 42.1496 125.059 42.1496 125.059 42.1496L124.884 41.9746L124.709 41.7996V41.6246C124.709 41.6246 124.709 41.6246 124.534 41.6246C124.534 41.4496 124.359 41.2746 124.359 41.0996C124.009 40.5746 123.834 40.0496 123.659 39.5246C123.659 38.9996 123.484 38.4746 123.484 38.1246C123.309 36.3746 122.784 34.7996 122.609 33.0496C122.259 31.2996 122.434 29.3746 122.434 27.6246C122.259 26.7496 122.259 25.8746 122.434 24.9996C122.434 23.9496 122.434 23.0746 122.784 22.0246C122.784 21.6746 122.959 21.4996 122.959 21.1496C123.134 20.9746 123.134 20.7996 123.134 20.7996C123.309 20.6246 123.309 20.4496 123.484 20.2746C123.834 19.7496 124.359 19.0496 125.059 18.6996C125.584 18.3496 126.284 18.1746 126.809 17.9996C126.984 17.9996 126.984 17.9996 126.984 17.9996H127.159H127.334H127.684H128.034H128.384C130.134 17.8246 131.884 17.9996 133.459 17.9996C135.209 17.9996 136.959 18.1746 138.709 17.9996C140.459 17.9996 142.209 18.1746 143.784 18.1746C145.534 18.1746 147.284 17.8246 149.034 17.6496C150.784 17.6496 152.534 17.9996 154.109 17.9996C155.859 17.9996 157.609 17.4746 159.359 17.4746C161.109 17.4746 162.859 17.8246 164.609 17.8246C164.784 17.8246 165.134 17.8246 165.484 17.8246H166.009H166.184H166.359H166.534H166.884H167.059C167.584 17.8246 167.934 17.9996 168.284 17.9996C168.809 17.9996 169.159 17.9996 169.684 17.9996C171.784 17.9996 173.534 17.8246 175.109 17.8246C177.034 17.8246 178.784 17.9996 180.359 18.1746C182.459 18.1746 184.034 18.1746 185.784 18.3496C186.134 18.3496 186.659 18.3496 187.009 18.3496C187.359 18.3496 187.884 18.3496 188.234 18.3496C189.109 18.3496 189.984 18.3496 191.034 18.5246C192.434 18.5246 194.184 18.8746 196.284 19.0496C197.859 19.0496 199.609 18.6996 201.709 18.8746C202.059 18.8746 202.234 18.8746 202.584 18.8746C202.759 18.8746 202.934 18.8746 202.934 18.8746C203.109 18.8746 203.109 18.8746 203.284 18.8746H203.459C203.809 19.0496 203.984 19.0496 204.334 19.2246C204.509 19.3996 204.859 19.5746 205.034 19.7496C205.384 20.0996 205.734 20.4496 205.909 20.7996C206.259 21.4996 206.434 22.1996 206.609 22.8996C206.784 23.9496 206.784 24.9996 206.784 26.0496C206.784 26.3996 206.784 26.9246 206.609 27.4496C206.609 27.7996 206.609 28.3246 206.609 28.8496C206.609 29.5496 206.609 30.4246 206.609 31.4746C206.609 32.3496 206.609 33.3996 206.609 34.6246C206.609 34.7996 206.784 34.7996 206.784 34.7996C206.784 34.9746 206.784 34.9746 206.784 35.1496C206.784 35.1496 206.959 34.7996 206.959 34.9746ZM312.404 34.9746C312.579 35.8496 312.579 36.7246 312.579 37.5996C312.404 38.4746 312.229 39.3496 311.879 40.0496C311.179 40.9246 310.304 41.6246 309.429 41.9746C308.554 42.3246 307.854 42.4996 306.979 42.6746C306.804 42.6746 306.629 42.6746 306.279 42.6746C306.104 42.6746 305.929 42.6746 305.579 42.6746C305.229 42.8496 304.704 42.6746 304.354 42.6746C303.479 42.6746 302.779 42.6746 302.079 42.6746C300.504 42.6746 299.104 43.1996 297.179 43.1996C295.779 43.1996 294.204 42.8496 292.104 42.6746C290.704 42.6746 289.129 42.6746 287.204 42.4996C286.504 42.4996 285.629 42.4996 284.754 42.4996C284.579 42.4996 284.404 42.4996 284.229 42.4996C284.054 42.4996 284.054 42.4996 284.054 42.4996C283.879 42.6746 283.879 42.6746 283.879 42.6746C283.879 42.8496 283.879 43.0246 283.879 43.0246V43.1996L284.054 43.5496C284.054 43.8996 284.054 44.0746 284.054 44.2496C284.054 45.1246 284.054 45.9996 283.879 47.0496C283.879 47.3996 283.879 47.9246 283.704 48.2746C283.704 48.7996 283.704 49.1496 283.529 49.4996C283.354 50.3746 283.354 51.2496 283.354 52.1246C283.179 53.6996 283.354 55.4496 283.179 57.1996C283.179 58.9496 282.829 60.6996 282.829 62.4496C282.829 64.1996 283.004 65.9496 283.004 67.6996C283.004 68.5746 283.004 69.4496 282.829 70.3246C282.829 70.6746 282.829 71.1996 282.829 71.5496C282.829 71.8996 282.829 72.4246 282.829 72.7746C282.829 74.5246 283.004 76.2746 283.004 78.0246C283.004 79.7746 283.004 81.5246 283.004 83.2746C283.004 85.0246 283.354 86.7746 283.354 88.5246C283.354 90.2746 283.354 91.8496 283.354 93.5996C283.354 95.3496 283.354 97.0996 283.354 98.8496C283.354 100.6 283.529 102.35 283.529 104.1C283.704 105.85 283.529 107.6 283.529 109.35C283.529 111.1 283.704 112.85 283.704 114.6C283.704 116.35 283.879 118.1 283.879 119.675C283.879 121.6 283.879 123.35 283.879 124.925C283.879 126.85 283.879 128.6 283.704 130.175C283.704 131.925 283.879 133.675 283.704 135.425C283.704 135.775 283.704 136.3 283.704 136.825L283.529 137.35V137.875V138.05V138.4C283.354 138.75 283.354 139.1 283.179 139.45C283.004 139.8 282.654 140.15 282.304 140.325C281.954 140.675 281.604 140.85 281.254 141.025C280.904 141.2 280.729 141.375 280.379 141.375C279.854 141.55 279.329 141.725 278.804 141.725C278.804 141.725 278.629 141.725 278.454 141.725H278.279L277.579 141.9C276.879 141.9 276.004 142.075 275.129 142.25C273.379 142.6 271.629 143.125 269.879 143.3C269.004 143.475 268.129 143.475 267.079 143.475C266.904 143.65 266.554 143.65 266.379 143.65H265.679C265.329 143.65 264.804 143.475 264.279 143.475C263.754 143.3 263.229 143.3 262.704 142.95C262.004 142.775 261.479 142.425 261.129 142.075C260.604 141.725 260.079 141.2 259.729 140.5C259.554 139.975 259.379 139.45 259.204 138.925C259.029 138.4 258.854 137.875 258.854 137.35C258.854 137.35 258.854 137.175 258.854 137C258.854 136.825 258.854 136.825 258.854 136.65V135.95C258.854 135.6 258.679 135.075 258.679 134.725C258.679 134.2 258.679 133.85 258.679 133.325C258.679 131.75 258.679 130 258.679 128.25C258.679 126.5 258.329 124.75 258.329 123C258.329 121.425 258.504 119.675 258.504 117.925C258.504 116.175 258.329 114.425 258.329 112.675C258.329 111.1 258.154 109.35 257.979 107.6C257.979 105.85 258.154 104.1 258.154 102.35C258.154 100.775 258.329 99.0246 258.329 97.2746C258.329 95.5246 258.329 93.7746 258.329 92.0246C258.329 90.4496 258.154 88.6996 258.154 86.9496C258.154 85.1996 257.979 83.4496 257.979 81.6996C257.979 80.1246 257.979 78.3746 257.979 76.6246C257.979 74.8746 258.154 73.1246 258.154 71.3746C258.154 69.7996 257.979 68.0496 257.979 66.2996C257.979 64.5496 258.504 62.7996 258.504 61.0496C258.504 60.1746 258.504 59.2996 258.504 58.5996C258.504 57.7246 258.504 56.8496 258.504 55.9746C258.504 55.0996 258.504 54.2246 258.329 53.3496C258.329 52.4746 258.329 51.5996 258.329 50.7246C258.329 49.8496 258.329 48.9746 258.504 48.0996C258.504 47.2246 258.504 46.3496 258.504 45.6496C258.679 45.1246 258.679 44.7746 258.679 44.2496V43.7246V43.5496C258.679 43.3746 258.679 43.3746 258.679 43.3746C258.504 43.3746 258.504 43.3746 258.504 43.3746H258.329H258.154L256.929 43.5496C256.054 43.5496 255.179 43.5496 254.304 43.7246C252.554 43.7246 250.804 43.5496 249.054 43.5496C247.479 43.5496 245.729 43.8996 243.979 43.8996C242.229 43.7246 240.479 43.3746 238.729 43.3746C236.979 43.1996 235.229 43.1996 233.479 43.0246C232.954 43.0246 232.429 42.8496 231.904 42.8496C231.729 42.6746 231.729 42.6746 231.554 42.6746C231.379 42.6746 231.379 42.6746 231.204 42.4996H231.029C231.029 42.4996 230.854 42.4996 230.854 42.3246C230.854 42.3246 230.854 42.3246 230.679 42.3246C230.679 42.3246 230.679 42.3246 230.679 42.1496C230.504 42.1496 230.504 42.1496 230.504 42.1496L230.329 41.9746L230.154 41.7996V41.6246C230.154 41.6246 230.154 41.6246 229.979 41.6246C229.979 41.4496 229.804 41.2746 229.804 41.0996C229.454 40.5746 229.279 40.0496 229.104 39.5246C229.104 38.9996 228.929 38.4746 228.929 38.1246C228.754 36.3746 228.229 34.7996 228.054 33.0496C227.704 31.2996 227.879 29.3746 227.879 27.6246C227.704 26.7496 227.704 25.8746 227.879 24.9996C227.879 23.9496 227.879 23.0746 228.229 22.0246C228.229 21.6746 228.404 21.4996 228.404 21.1496C228.579 20.9746 228.579 20.7996 228.579 20.7996C228.754 20.6246 228.754 20.4496 228.929 20.2746C229.279 19.7496 229.804 19.0496 230.504 18.6996C231.029 18.3496 231.729 18.1746 232.254 17.9996C232.429 17.9996 232.429 17.9996 232.429 17.9996H232.604H232.779H233.129H233.479H233.829C235.579 17.8246 237.329 17.9996 238.904 17.9996C240.654 17.9996 242.404 18.1746 244.154 17.9996C245.904 17.9996 247.654 18.1746 249.229 18.1746C250.979 18.1746 252.729 17.8246 254.479 17.6496C256.229 17.6496 257.979 17.9996 259.554 17.9996C261.304 17.9996 263.054 17.4746 264.804 17.4746C266.554 17.4746 268.304 17.8246 270.054 17.8246C270.229 17.8246 270.579 17.8246 270.929 17.8246H271.454H271.629H271.804H271.979H272.329H272.504C273.029 17.8246 273.379 17.9996 273.729 17.9996C274.254 17.9996 274.604 17.9996 275.129 17.9996C277.229 17.9996 278.979 17.8246 280.554 17.8246C282.479 17.8246 284.229 17.9996 285.804 18.1746C287.904 18.1746 289.479 18.1746 291.229 18.3496C291.579 18.3496 292.104 18.3496 292.454 18.3496C292.804 18.3496 293.329 18.3496 293.679 18.3496C294.554 18.3496 295.429 18.3496 296.479 18.5246C297.879 18.5246 299.629 18.8746 301.729 19.0496C303.304 19.0496 305.054 18.6996 307.154 18.8746C307.504 18.8746 307.679 18.8746 308.029 18.8746C308.204 18.8746 308.379 18.8746 308.379 18.8746C308.554 18.8746 308.554 18.8746 308.729 18.8746H308.904C309.254 19.0496 309.429 19.0496 309.779 19.2246C309.954 19.3996 310.304 19.5746 310.479 19.7496C310.829 20.0996 311.179 20.4496 311.354 20.7996C311.704 21.4996 311.879 22.1996 312.054 22.8996C312.229 23.9496 312.229 24.9996 312.229 26.0496C312.229 26.3996 312.229 26.9246 312.054 27.4496C312.054 27.7996 312.054 28.3246 312.054 28.8496C312.054 29.5496 312.054 30.4246 312.054 31.4746C312.054 32.3496 312.054 33.3996 312.054 34.6246C312.054 34.7996 312.229 34.7996 312.229 34.7996C312.229 34.9746 312.229 34.9746 312.229 35.1496C312.229 35.1496 312.404 34.7996 312.404 34.9746Z" fill="white"/>
<path d="M374.559 39.6247C374.559 40.8497 374.209 42.0747 374.209 43.2997C374.034 44.5247 374.384 45.7497 374.384 46.9747C374.209 48.3747 374.209 49.5997 374.034 50.8247C373.859 51.8747 373.684 53.0997 373.509 54.3247C373.509 55.3747 373.684 56.5997 373.684 57.8247C373.684 59.0497 373.684 60.2747 373.684 61.4997C373.684 62.7247 373.334 63.9497 373.334 65.1747C373.509 66.3997 373.684 67.6247 373.684 68.8497C373.684 69.8997 373.859 71.2996 373.684 72.6996C373.684 73.7496 373.159 75.1497 373.159 76.3747C373.159 77.5997 373.159 78.8247 372.984 80.0497C372.984 81.2747 372.984 82.4997 372.984 83.8997C372.984 85.1247 373.159 86.3496 373.159 87.5746C373.159 88.0996 373.159 88.7996 373.159 89.3246C372.984 90.0246 372.984 90.5496 372.984 91.2496C373.159 92.4746 373.334 93.6996 373.334 95.0996C373.509 96.3246 373.684 97.5497 373.859 98.7747C373.859 99.9997 373.684 101.4 373.684 102.625C373.684 103.85 373.859 105.075 373.859 106.3C373.859 107.7 373.684 108.925 373.684 110.15C373.684 111.375 374.034 112.775 374.034 113.825C374.034 115.225 373.859 116.625 373.859 117.675C373.684 118.9 373.684 120.125 373.684 121.175C373.684 122.4 373.334 123.625 373.334 124.5C373.159 125.9 373.509 127.125 373.334 128.175C373.334 129.225 372.984 130.275 372.809 131.5C372.634 132.55 372.809 133.775 372.459 135C372.459 135.525 372.284 136.05 372.109 136.575C371.934 136.925 371.934 137.1 371.759 137.45C371.759 137.625 371.584 137.8 371.584 137.975C371.584 137.975 371.584 138.15 371.409 138.15C371.409 138.15 371.409 138.325 371.234 138.325C371.409 138.325 371.234 138.5 371.234 138.325C371.234 138.5 371.234 138.5 371.059 138.675H371.234C370.709 139.2 370.009 139.55 369.484 139.725C368.959 139.9 368.259 140.075 367.734 140.25C366.509 140.6 365.284 140.6 364.059 140.95C362.834 141.3 361.784 142 360.559 142.175C359.334 142.525 358.109 142.7 356.709 142.7C356.009 142.7 355.484 142.7 354.784 142.7C354.084 142.7 353.384 142.525 352.509 142.175C352.159 142 351.809 141.825 351.634 141.65C351.284 141.475 350.934 141.125 350.584 140.775C350.059 140.075 349.884 139.2 349.534 138.5C349.359 137.8 349.184 137.1 349.184 136.4C349.009 135.875 349.009 135.175 348.834 134.475C348.834 133.425 348.834 132.2 348.834 130.8C348.659 129.575 348.484 128.35 348.484 127.125C348.484 125.9 348.659 124.675 348.659 123.45C348.659 122.225 348.484 121 348.484 119.775C348.484 118.55 348.309 117.325 348.309 116.1C348.309 114.875 348.309 113.65 348.309 112.425C348.309 111.2 348.484 109.975 348.484 108.75C348.484 107.525 348.309 106.3 348.309 105.075C348.309 103.85 348.309 102.625 348.134 101.4C348.134 100.175 348.134 98.9496 348.134 97.7246C348.134 96.4996 348.309 95.2747 348.309 94.0497C348.309 92.8247 348.309 91.5996 348.309 90.3746C348.309 89.1496 348.134 87.9246 348.134 86.6996C347.959 85.4746 348.134 84.4247 348.134 83.0247C348.134 81.9747 348.134 80.7497 348.134 79.5247C348.134 78.2997 348.309 77.0747 348.309 75.8497C348.309 74.6247 348.309 73.3997 348.309 72.1747C348.309 70.9497 348.134 69.7247 348.134 68.4997C348.134 67.2747 348.134 66.0496 348.134 64.8246C348.134 63.5996 348.484 62.3747 348.484 61.1497C348.484 59.9247 348.134 58.6997 348.309 57.4747C348.309 56.2497 348.484 55.0247 348.484 53.7997C348.484 52.5747 348.309 51.3497 348.309 50.1247C348.309 49.4247 348.309 48.8997 348.309 48.1997L348.484 46.4497C348.484 45.2247 348.834 43.9997 348.834 42.7747C348.834 41.5497 348.834 40.4997 348.834 39.2747C348.834 38.0497 348.659 36.8247 348.659 35.5997V31.9247C348.659 30.6997 348.659 29.4747 348.659 28.2497C348.834 27.0247 348.484 25.7997 348.484 24.5747C348.484 24.3997 348.484 24.2247 348.484 24.0497V23.8747L348.659 23.6997V23.5247C348.659 23.1747 348.659 22.9997 348.834 22.8247C348.834 22.6497 348.834 22.4747 349.009 22.2997C349.009 21.9497 349.184 21.5997 349.359 21.2497C349.534 20.8997 349.884 20.5497 350.059 20.1997C350.409 19.4997 350.934 18.7997 351.634 18.0997C352.159 17.5747 352.859 17.2247 353.559 16.8747C355.134 16.3497 356.709 16.6997 357.934 16.6997C359.159 16.6997 360.384 16.6997 361.609 16.6997C362.309 16.6997 362.834 16.6997 363.359 16.6997C364.059 16.5247 364.584 16.5247 365.109 16.5247H365.634C365.809 16.5247 365.984 16.5247 366.159 16.5247C366.334 16.5247 366.509 16.5247 366.684 16.5247L367.209 16.6997C367.384 16.6997 367.559 16.6997 367.909 16.6997C368.084 16.8747 368.259 16.8747 368.434 16.8747C368.784 17.0497 369.134 17.2247 369.484 17.3997C370.359 17.7497 371.059 18.0997 371.584 18.6247C371.759 18.7997 371.934 18.9747 372.109 19.1497C372.284 19.1497 372.459 19.3247 372.459 19.4997C372.809 19.8497 372.984 20.1997 373.159 20.5497C373.859 21.9497 374.034 23.3497 374.209 24.7497C374.209 25.0997 374.384 25.4497 374.384 25.7997V26.6747C374.559 27.3747 374.559 27.8997 374.559 28.5997C374.559 29.8247 374.209 31.0497 374.384 32.2747C374.384 33.4997 374.384 34.7247 374.384 35.9497C374.384 37.1747 374.559 38.3997 374.559 39.6247ZM526.336 108.925C526.336 112.425 526.336 115.925 526.336 119.775C526.336 123.275 526.686 126.95 526.511 130.625C526.511 131.5 526.511 132.55 526.511 133.425C526.511 133.6 526.511 133.775 526.511 134.125C526.511 134.3 526.336 134.475 526.336 134.825C526.336 135 526.336 135.175 526.336 135.525V135.875C526.336 136.05 526.336 136.05 526.336 136.225C526.161 136.75 525.986 137.275 525.811 137.975C525.636 138.5 525.286 139.025 524.936 139.55C524.761 139.9 524.411 140.075 524.236 140.425C523.886 140.6 523.711 140.775 523.361 140.95C522.836 141.125 522.311 141.475 521.611 141.65C520.561 141.825 519.511 141.825 518.811 142C517.761 142 516.886 142.175 516.011 142.175C514.086 142.35 512.336 142.35 510.236 142.175C509.186 142.175 507.961 142 506.736 141.65C506.211 141.475 505.511 141.475 504.811 141.125C504.636 141.125 504.111 140.95 503.761 140.775C503.411 140.425 503.061 140.075 502.711 139.725C502.536 139.725 502.536 139.725 502.536 139.55L502.361 139.375C502.361 139.375 502.186 139.2 502.186 139.025C502.186 138.85 502.186 138.85 502.011 138.675C502.011 138.5 502.011 138.325 502.011 138.15V137.975V137.8L501.836 137.625C501.836 137.45 501.836 137.275 501.836 137.1C501.836 136.4 501.661 135.7 501.661 135C501.486 131.325 501.311 127.65 501.136 123.975C501.136 120.475 501.311 116.8 501.311 113.125C501.311 109.45 501.136 105.775 501.311 102.275C501.311 98.5997 501.661 94.9246 501.836 91.2496C501.836 90.3746 501.836 89.4996 501.836 88.6246C501.836 87.5746 502.011 86.6996 502.011 85.8246C502.011 84.0746 502.011 82.3246 502.011 80.5746C502.011 79.3496 502.186 78.1246 502.186 77.0746C501.311 80.0496 500.436 83.0246 499.736 85.9996C498.861 89.4996 498.336 93.1746 497.461 96.4996C496.586 100.175 495.886 103.675 495.186 107.175C494.311 110.85 493.611 114.35 492.736 117.85C492.211 119.6 491.861 121.525 491.336 123.275C490.811 125.025 490.461 126.6 489.936 128.35C489.761 129.225 489.586 130.1 489.411 130.975C489.061 131.85 488.886 132.725 488.711 133.6C488.536 133.95 488.361 134.475 488.361 134.825C488.186 135.35 488.011 135.7 488.011 136.225L487.661 136.925C487.661 137.1 487.661 137.275 487.486 137.45C487.311 137.975 487.136 138.5 486.961 138.85V139.025C486.961 139.2 486.961 139.2 486.786 139.375L486.611 139.725V139.9C486.261 140.25 486.086 140.425 485.736 140.775C485.211 141.3 484.511 141.65 483.986 141.825C483.286 142 482.586 142.175 482.061 142.175C481.711 142.175 481.536 142.175 481.186 142.175H480.661C478.736 142.175 476.986 142.175 475.236 142.175C473.661 142.175 472.086 142.175 470.511 142.175H470.686C470.511 142.175 470.161 142.175 469.811 142.175L469.286 142C469.111 142 468.936 142 468.761 142C468.411 141.825 468.061 141.825 467.711 141.65C467.536 141.475 467.361 141.475 467.186 141.3C467.011 141.3 466.836 141.125 466.661 140.95C466.486 140.95 466.311 140.775 466.136 140.6C466.136 140.6 465.961 140.425 465.786 140.25L465.436 139.9L465.261 139.375C465.086 139.2 465.086 139.2 464.911 139.025C464.911 138.85 464.736 138.675 464.736 138.5C464.561 138.325 464.386 137.975 464.386 137.8C464.036 136.75 463.686 135.875 463.511 135.175C463.161 134.3 462.986 133.425 462.636 132.55C462.111 130.8 461.586 129.225 460.886 127.475C459.836 123.975 458.611 120.65 457.386 117.325C456.336 113.825 455.461 110.325 454.236 107C453.186 103.5 451.961 100.175 450.911 96.6747C449.861 93.3497 448.636 90.0247 447.586 86.5247C446.536 83.1997 445.136 79.8747 444.086 76.3747L443.911 76.1996C443.911 76.3746 443.911 76.5497 443.911 76.8997C443.911 80.3997 444.261 83.8997 444.436 87.3997C444.786 91.0747 444.786 94.7496 444.961 98.2496C445.136 101.925 444.961 105.425 444.961 109.1C445.136 112.6 445.136 116.275 445.311 119.775C445.311 123.45 445.311 127.125 445.311 130.625C445.311 132.55 445.311 134.3 445.136 136.225C445.136 136.575 445.136 137.1 444.961 137.625C444.961 137.8 444.961 137.975 444.961 138.325C444.961 138.675 444.786 138.85 444.786 139.2C444.786 139.375 444.786 139.375 444.611 139.55C444.611 139.725 444.611 139.725 444.611 139.9H444.436V140.075C444.436 140.075 444.261 140.075 444.261 140.25L444.086 140.425L443.736 140.775C443.561 140.95 443.211 141.125 442.861 141.3C442.336 141.65 441.636 141.825 441.111 142C440.586 142.175 440.061 142.175 439.711 142.35H439.011L438.311 142.525C437.261 142.7 436.386 142.7 435.336 142.7C433.411 142.7 431.661 142.7 429.736 142.525L427.111 142.35L426.411 142.175C426.236 142.175 426.061 142.175 425.711 142.175C425.186 142.175 424.661 142 424.136 141.825C423.436 141.65 422.911 141.475 422.386 141.125C422.211 140.95 422.036 140.95 422.036 140.775H421.861L421.686 140.6C421.686 140.6 421.686 140.425 421.511 140.425C421.336 140.25 420.986 139.9 420.811 139.55C420.461 139.025 420.111 138.325 419.936 137.8C419.761 137.275 419.761 136.75 419.586 136.225V135.7C419.586 135.7 419.586 135.525 419.586 135.35V134.65V133.25L419.411 130.625C419.411 128.875 419.236 126.95 419.236 125.2C419.236 121.7 419.586 118.025 419.586 114.525C419.586 110.85 419.411 107.35 419.411 103.675C419.411 99.9997 419.061 96.4996 419.061 92.8246C419.061 89.3246 419.061 85.6497 419.061 82.1497C419.061 78.4747 419.061 74.9747 419.061 71.2997C419.061 69.5497 419.061 67.7997 419.061 65.8747C418.886 64.1247 418.886 62.3747 419.061 60.6247C419.061 58.6997 419.061 56.9497 419.236 55.1997C419.236 53.4497 419.411 51.5247 419.411 49.7747C419.411 48.8997 419.411 48.0247 419.586 46.9747C419.586 46.0997 419.586 45.2247 419.586 44.3497C419.411 42.5997 419.411 40.8497 419.411 39.0997C419.411 35.4247 419.761 31.9247 419.761 28.2497C419.761 26.4997 419.761 24.7497 419.761 22.8247V21.5997V21.2497C419.761 21.0747 419.761 20.8997 419.761 20.7247C419.761 20.3747 419.761 20.0247 419.936 19.6747C420.111 19.1497 420.461 18.4497 420.986 17.9247C421.161 17.7497 421.511 17.3997 421.861 17.2247C422.211 16.8747 422.561 16.6997 422.911 16.6997C423.086 16.6997 423.261 16.5247 423.436 16.5247C424.311 16.5247 425.186 16.5247 426.236 16.3497C427.111 16.3497 427.986 16.3497 428.861 16.1747C430.611 16.1747 432.361 15.9997 434.111 15.9997C437.611 15.9997 441.286 15.8247 444.961 15.9997C445.836 15.9997 446.711 16.1747 447.761 16.1747L448.111 16.3497C448.286 16.3497 448.286 16.3497 448.461 16.3497C448.636 16.3497 448.986 16.3497 449.161 16.5247C449.336 16.5247 449.511 16.6997 449.686 16.6997C449.861 16.8747 450.036 16.8747 450.211 17.0497L450.561 17.2247V17.3997H450.736C450.911 17.7497 451.086 17.9247 451.261 18.0997C451.961 18.9747 452.486 19.8497 452.836 20.7247C453.361 21.5997 453.711 22.4747 454.061 23.3497C454.411 24.2247 454.761 25.0997 455.111 25.9747L455.286 26.4997C455.286 26.8497 455.461 27.0247 455.461 27.1997L455.986 28.4247C456.686 30.1747 457.211 31.9247 457.911 33.4997C458.961 36.9997 460.361 40.3247 461.411 43.8247C462.461 47.1497 463.336 50.6497 464.211 54.1497C465.261 57.6497 466.136 61.1497 467.186 64.4747C468.236 67.9747 469.111 71.4747 470.161 74.7997C471.211 78.2997 472.436 81.6246 473.486 85.1246C474.011 86.6996 474.536 88.2746 475.061 89.8496C475.061 90.1996 475.236 90.5497 475.236 90.8997C475.411 90.3747 475.586 89.6747 475.586 89.1497C475.761 88.7997 475.761 88.2746 475.936 87.7496C476.111 87.2246 476.286 86.8747 476.286 86.5247C476.461 85.6497 476.811 84.7747 476.986 83.8997C477.161 83.5497 477.336 83.0247 477.336 82.6747C477.511 82.3247 477.686 81.7996 477.686 81.4496C478.036 80.5746 478.211 79.6996 478.561 78.8246C478.736 77.9496 478.911 77.0746 479.261 76.1996C479.261 75.8496 479.436 75.4997 479.611 74.9747C479.611 74.6247 479.786 74.0997 479.786 73.7497C479.961 72.8747 480.136 71.9997 480.486 71.1247C480.661 70.2497 480.836 69.3747 481.011 68.4997C481.361 66.7497 481.711 64.9997 482.061 63.2497C482.761 59.0497 482.936 55.5497 483.461 52.2247C484.161 48.0247 484.861 44.5247 485.561 41.3747C485.911 39.2747 486.261 37.3497 486.611 35.5997C486.786 34.5497 486.961 33.6747 487.136 32.7997C487.311 32.0997 487.486 31.2247 487.661 30.3497C487.836 29.4747 488.011 28.5997 488.361 27.7247C488.536 26.8497 488.711 25.9747 488.886 25.0997C489.061 24.5747 489.236 24.2247 489.236 23.6997C489.411 23.5247 489.411 23.1747 489.411 22.9997C489.411 22.8247 489.586 22.6497 489.586 22.6497C489.586 22.4747 489.761 22.2997 489.761 22.2997C489.936 21.7747 490.111 21.2497 490.461 20.7247C490.636 20.3747 490.636 20.1997 490.986 19.8497C491.161 19.6747 491.336 19.3247 491.686 19.1497C491.686 18.9747 491.861 18.7997 492.036 18.7997L492.211 18.6247C492.386 18.4497 492.736 18.2747 492.911 18.2747C493.086 18.0997 493.261 17.9247 493.611 17.9247C493.786 17.7497 493.961 17.5747 494.311 17.5747C495.361 17.2247 496.236 17.2247 497.286 17.2247C499.211 17.2247 501.136 17.2247 503.236 17.2247C504.811 17.2247 506.561 17.2247 508.486 17.2247H508.661H509.011C509.011 17.2247 509.186 17.2247 509.361 17.2247C509.536 17.2247 509.711 17.2247 509.886 17.2247C510.411 17.2247 510.936 17.2247 511.461 17.2247C512.336 17.2247 513.386 17.2247 514.436 17.2247C514.961 17.2247 515.661 17.2247 516.186 17.2247C516.536 17.2247 516.886 17.3997 517.061 17.3997C517.411 17.3997 517.761 17.3997 517.936 17.3997C519.161 17.3997 520.211 17.5747 521.261 17.9247C522.311 18.2747 523.361 18.7997 524.236 19.6747C524.411 19.8497 524.586 20.1997 524.586 20.3747C524.761 20.5497 524.936 20.8997 525.111 21.0747C525.111 21.2497 525.111 21.5997 525.286 21.7747C525.286 22.1247 525.286 22.2997 525.461 22.4747C525.461 22.6497 525.461 22.6497 525.461 22.8247V22.9997C525.461 23.1747 525.461 23.3497 525.461 23.5247C525.461 23.6997 525.461 24.0497 525.461 24.2247C525.461 24.7497 525.461 25.2747 525.461 25.7997C525.461 26.8497 525.286 27.8997 525.286 28.7747C525.286 30.6997 525.111 32.6247 524.936 34.7247C524.936 36.2997 524.936 38.2247 524.761 40.1497C524.761 42.0747 524.761 44.1747 524.761 46.6247C524.761 46.7997 524.761 46.7997 524.761 46.7997C524.761 47.1497 524.936 47.3247 524.761 47.3247C524.761 47.4997 524.761 47.6747 524.761 47.8497C524.936 47.8497 524.936 46.9747 524.936 47.4997C525.111 49.4247 525.286 51.1747 525.461 52.9247C525.461 54.4997 525.636 56.0747 525.811 57.6497C525.811 59.5747 525.811 61.4997 525.811 63.2497C525.811 64.9997 525.986 66.3997 525.986 67.9747C526.161 71.8247 525.986 75.1497 525.986 78.2997C526.161 81.2747 526.511 84.4247 526.686 88.2747C526.686 91.2497 526.336 94.5747 526.336 98.7747C526.336 101.75 526.336 105.075 526.336 108.925ZM640.235 81.6246C640.235 82.3246 640.41 83.0246 640.41 83.7246C640.41 84.9496 640.06 86.1747 639.885 87.9247C639.885 88.9747 639.71 90.3746 639.535 91.9496C639.535 92.6496 639.36 93.3497 639.36 94.0497C639.185 94.7497 639.185 95.4497 639.01 96.1497C638.835 96.8497 638.835 97.5497 638.835 98.4247C638.66 98.7747 638.66 99.1246 638.66 99.4746C638.66 99.8246 638.485 100.175 638.485 100.525C638.485 100.875 638.31 101.225 638.135 101.575C638.135 101.925 637.96 102.275 637.785 102.625C637.785 102.975 637.61 103.325 637.435 103.675C637.435 104.025 637.26 104.375 637.26 104.725C637.085 105.075 636.91 105.425 636.91 105.775C636.735 106.125 636.735 106.475 636.56 106.825C636.56 107.175 636.385 107.525 636.385 107.875C636.21 108.225 636.21 108.575 636.035 108.925C635.51 110.325 634.81 111.55 634.11 112.95C633.585 114.175 633.235 115.575 632.535 116.975C631.835 118.2 631.135 119.425 630.26 120.65C629.56 121.875 629.035 123.275 628.16 124.5C627.985 124.85 627.81 125.2 627.635 125.375L627.285 125.9L626.935 126.25C626.935 126.425 626.76 126.425 626.76 126.6L626.585 126.775C626.41 126.95 626.41 127.125 626.235 127.3C626.06 127.475 625.71 127.825 625.535 128.175C624.485 129.225 623.61 130.45 622.56 131.5C621.51 132.375 620.285 133.25 619.235 134.3C618.885 134.475 618.71 134.65 618.36 134.825C618.185 135.175 617.835 135.35 617.66 135.525C617.31 135.875 616.96 136.05 616.61 136.225C616.26 136.575 616.085 136.75 615.735 136.925C614.335 137.8 613.11 138.675 611.71 139.2C611.36 139.375 611.01 139.55 610.66 139.725C610.31 139.725 609.785 139.9 609.435 139.9L608.91 140.075C608.735 140.25 608.56 140.25 608.385 140.25C608.035 140.25 607.685 140.425 607.335 140.6C606.635 140.775 605.935 140.95 605.235 141.125C604.36 141.3 603.66 141.475 602.96 141.65C601.385 141.825 599.985 142 598.585 142C598.235 142 597.71 142.175 597.36 142.175C597.01 142.175 596.66 142.175 596.31 142.175C595.96 142.175 595.435 142.175 595.085 142.175C594.735 142.175 594.385 142.175 594.035 142C592.46 142 591.06 141.65 589.66 141.3C588.085 141.125 586.51 140.775 585.11 140.075C583.71 139.375 582.31 138.5 581.26 137.45C580.91 137.275 580.735 137.1 580.385 136.75C580.21 136.575 579.86 136.225 579.685 136.05C579.16 135.525 578.635 135 578.11 134.475C577.585 133.95 577.06 133.425 576.535 132.9L576.36 132.725L576.01 132.375L575.485 132.025L575.31 131.85H575.135L574.96 131.5C573.91 130.45 572.86 129.575 571.81 128.35C571.635 128 571.46 127.825 571.285 127.475C570.935 127.125 570.76 126.775 570.585 126.6L570.06 125.55C569.885 125.375 569.71 125.025 569.36 124.675C569.185 124.325 569.01 124.15 568.835 123.8C568.66 123.45 568.485 123.1 568.31 122.925C567.785 122.225 567.435 121.7 567.085 121C566.385 119.775 565.86 118.375 565.16 117.15C564.985 116.45 564.635 115.75 564.285 115.05C563.935 114.525 563.585 113.825 563.41 113.125C563.235 112.425 562.885 111.725 562.71 111.025C562.535 110.325 562.36 109.625 562.185 108.925C561.835 107.525 561.31 106.125 561.135 104.725C560.96 104.375 560.96 104.025 560.785 103.675C560.785 103.325 560.61 102.975 560.435 102.625C560.26 101.925 560.085 101.225 560.085 100.525C559.91 99.1247 559.91 97.5497 559.735 96.1497C559.56 94.7497 559.735 93.3496 559.56 91.9496C559.56 90.5496 559.385 89.1496 559.385 87.5746C559.21 86.1746 559.035 84.7746 559.035 83.3746C559.035 81.9746 558.86 80.5747 559.035 79.1747C559.035 77.5997 559.035 76.1997 559.035 74.7997C559.21 74.0997 559.21 73.3996 559.21 72.6996L559.385 70.5997C559.56 70.2497 559.56 69.8997 559.56 69.5497V68.3246C559.735 67.6246 559.735 66.9247 559.735 66.2247C559.91 64.8247 560.61 63.4247 560.785 62.0247C560.96 61.3247 561.135 60.6247 561.135 59.9247C561.31 59.2247 561.485 58.5247 561.485 57.8247C561.835 56.4247 561.835 55.0247 562.185 53.6247C562.36 52.9247 562.71 52.2247 562.885 51.5247L563.235 50.4747L563.41 49.4247C563.76 48.7247 563.935 48.0247 564.11 47.3247C564.46 46.6247 564.635 45.9247 564.985 45.3997C564.985 45.0497 565.16 44.6997 565.335 44.3497L565.51 43.8247L565.685 43.4747C565.685 43.2997 565.86 43.1247 565.86 42.9497L566.035 42.7747V42.5997V42.4247C566.21 42.0747 566.385 41.7247 566.56 41.3747C567.085 39.9747 567.785 38.7497 568.485 37.5247C569.185 36.2997 569.535 34.7247 570.235 33.4997C570.585 32.9747 571.11 32.2747 571.635 31.7497V31.5747H571.81C571.81 31.3997 571.81 31.3997 571.985 31.3997V31.2247L572.335 30.8747C572.685 30.5247 572.86 30.3497 573.21 29.9997C574.085 28.9497 575.135 27.7247 576.185 26.8497C577.235 25.7997 578.285 24.7497 579.335 23.8747C579.685 23.6997 579.86 23.5247 580.21 23.1747L580.56 22.8247L580.735 22.6497V22.4747C581.085 22.2997 581.26 21.9497 581.61 21.5997C581.96 21.4247 582.135 21.0747 582.485 20.8997C583.71 19.8497 585.285 19.3247 586.685 18.7997C588.085 18.0997 589.485 17.5747 590.885 17.2247C592.285 16.6997 593.685 16.1747 595.26 15.9997C596.66 15.8247 598.235 15.9997 599.635 15.9997C601.035 15.9997 602.61 16.1747 604.01 16.1747C605.41 16.3497 606.81 16.5247 608.21 16.8747C608.56 16.8747 609.085 16.8747 609.26 16.8747H609.96L610.485 17.0497C611.36 17.0497 612.06 17.2247 612.935 17.5747C614.335 18.0997 615.56 19.3247 616.785 20.1997C616.96 20.1997 616.96 20.3747 617.135 20.5497C617.31 20.5497 617.485 20.7247 617.66 20.7247L618.535 21.4247C619.235 21.7747 619.76 22.1247 620.285 22.6497C620.81 23.1747 621.335 23.6997 621.86 24.2247L622.21 24.7497L622.385 24.9247V25.0997C622.56 25.0997 622.56 25.0997 622.56 25.0997C622.56 25.0997 622.56 25.0997 622.56 25.2747H622.735C622.735 25.4497 622.91 25.4497 623.085 25.6247L623.26 25.7997C623.435 25.7997 623.61 25.9747 623.61 25.9747L623.96 26.3247L624.135 26.4997C624.31 26.8497 624.485 27.0247 624.835 27.3747C625.185 27.8997 625.71 28.5997 626.06 29.1247C626.585 29.8247 627.11 30.3497 627.635 30.8747C628.16 31.5747 628.685 32.0997 629.035 32.6247C629.385 33.3247 629.91 34.0247 630.26 34.7247C630.61 35.4247 630.785 35.9497 631.135 36.4747C631.31 36.8247 631.485 37.1747 631.66 37.5247C631.835 37.8747 632.01 38.2247 632.185 38.5747C632.535 39.2747 632.885 39.7997 633.235 40.4997C633.41 41.1997 633.76 41.7247 634.11 42.4247C634.46 43.1247 634.635 43.8247 634.985 44.6997C635.16 45.2247 635.16 45.9247 635.335 46.6247C635.51 47.3247 635.51 48.1997 635.86 48.8997C636.035 49.5997 636.21 50.2997 636.385 50.9997C636.735 51.6997 636.91 52.3997 637.085 53.2747C637.26 53.6247 637.26 54.1497 637.26 54.6747C637.435 55.0247 637.435 55.3747 637.61 55.7247C637.61 56.5997 637.785 57.2997 637.96 57.8247C638.31 59.5747 638.485 60.9747 638.66 62.5497C638.66 63.2497 638.835 63.9496 638.66 64.8246C638.66 65.5246 639.36 70.4247 639.535 71.6497C639.71 73.2247 639.71 74.6247 639.885 75.6747C639.885 76.3747 639.885 77.0747 639.885 77.7747C639.885 78.4747 639.885 79.1746 639.885 79.6996C639.885 80.3996 640.06 80.9246 640.235 81.6246ZM585.285 107.525C585.285 107.525 585.985 108.225 586.16 108.575C586.51 108.925 586.86 109.275 587.035 109.45C587.21 109.8 587.56 110.15 587.735 110.5C587.91 110.675 587.91 110.85 588.085 111.025C588.26 111.2 588.26 111.375 588.435 111.375C588.785 111.725 588.96 112.075 589.31 112.425C589.485 112.6 589.66 112.95 590.01 113.125C590.36 113.475 590.71 113.65 591.06 113.825C591.41 113.825 591.76 114 592.11 114.35C592.46 114.525 592.635 114.7 592.985 115.05C592.985 115.225 593.16 115.4 593.335 115.575C593.51 115.575 593.685 115.75 593.86 115.925C594.56 116.275 595.26 116.625 595.96 116.975C596.31 117.15 596.66 117.15 597.01 117.325C597.535 117.5 597.885 117.5 598.235 117.675C598.585 117.85 599.11 117.85 599.46 117.85C599.635 117.85 599.81 117.85 600.16 117.85C600.335 117.85 600.51 117.85 600.685 118.025C601.035 118.025 601.385 118.025 601.91 118.2C602.085 118.2 602.26 118.375 602.435 118.375C602.61 118.375 602.785 118.375 602.96 118.375C603.31 118.375 603.31 118.375 603.31 118.375C603.485 118.375 603.31 118.375 603.485 118.2C603.66 118.2 603.835 118.2 603.835 118.025C604.185 117.85 604.36 117.85 604.535 117.675C605.06 117.325 605.935 117.15 606.46 116.45C607.16 115.925 607.51 115.225 608.035 114.7C608.56 114 609.26 113.475 609.785 112.775C609.96 112.6 610.135 112.425 610.135 112.25L610.31 111.9L610.485 111.55C610.66 111.2 610.835 110.85 611.01 110.5C611.36 110.15 611.535 109.975 611.71 109.625C611.885 109.275 612.235 108.925 612.41 108.575C612.585 108.05 612.585 107.7 612.76 107.35C612.935 107 612.935 106.475 613.11 106.125C613.285 105.425 613.635 104.55 613.81 103.85C613.985 103.5 614.16 102.975 614.335 102.625C614.335 102.275 614.51 101.75 614.685 101.4C614.685 101.05 614.685 100.525 614.685 100.175C614.86 99.6497 614.86 99.2997 614.86 98.7747C615.035 97.8997 615.385 97.1996 615.56 96.3246C615.56 95.4496 615.56 94.5746 615.735 93.6996C615.735 93.1746 615.735 92.8247 615.91 92.2997C615.91 91.9497 615.91 91.4246 616.085 91.0746C616.085 90.7246 616.085 90.5496 616.085 90.3746C616.085 90.1996 616.085 90.0247 616.085 89.6747C616.085 89.3247 616.26 88.9746 616.26 88.4496C616.26 87.5746 616.61 86.6996 616.61 85.9996C616.61 85.1246 616.61 84.2496 616.61 83.3746C616.61 82.4996 616.785 81.6246 616.785 80.7496C616.96 79.8746 617.135 79.1747 617.135 78.2997C617.135 77.4247 617.31 76.5497 617.31 75.6747C617.31 74.7997 616.96 73.9247 616.96 73.0497C617.135 72.1747 617.135 71.2997 617.135 70.4247C617.135 69.5497 617.135 68.6747 617.135 67.7997C617.135 67.4497 617.135 66.9246 617.135 66.5746V66.2247V66.0497C617.135 65.8747 617.135 65.6997 617.135 65.5247C616.96 65.3497 616.96 65.1746 616.96 64.8246V64.6497H616.785V64.4747L616.61 64.2997C616.61 64.1247 616.61 63.9497 616.435 63.9497C616.435 63.5997 616.26 63.4247 616.26 63.0747C616.085 62.7247 616.085 62.1997 616.085 61.6747V60.9747V60.6247C615.91 60.0997 615.735 59.7497 615.735 59.2247C615.56 58.8747 615.385 58.5247 615.385 57.9997C615.035 57.2997 614.685 56.4247 614.51 55.7247C614.16 54.8497 614.16 53.9747 613.81 53.2747C613.635 52.9247 613.635 52.3997 613.46 52.0497C613.46 51.6997 613.285 51.1747 613.11 50.8247C612.935 50.4747 612.76 50.1247 612.585 49.7747C612.41 49.4247 612.235 49.0747 612.06 48.5497C611.885 48.1997 611.535 47.8497 611.36 47.4997C611.185 47.3247 610.835 46.9747 610.66 46.6247C610.31 45.9247 609.61 45.3997 609.085 44.6997C608.91 44.5247 608.56 44.1747 608.385 43.8247L607.86 43.4747C607.86 43.2997 607.685 43.2997 607.51 43.1247C607.335 42.9497 607.16 42.7747 607.16 42.7747L606.635 42.4247C606.46 42.2497 606.285 42.0747 606.285 41.8997L605.76 41.7247C605.585 41.5497 605.41 41.3747 605.235 41.3747L604.71 41.1997C604.535 41.0247 604.36 41.0247 604.185 40.8497C604.01 40.8497 603.835 40.8497 603.66 40.6747C603.485 40.6747 603.31 40.4997 603.135 40.4997C602.96 40.3247 602.785 40.1497 602.61 40.1497C602.61 39.9747 602.435 39.7997 602.26 39.7997C602.085 39.6247 601.91 39.6247 601.56 39.6247C601.385 39.6247 601.21 39.4497 601.035 39.4497H600.51L599.81 39.2747C599.635 39.2747 599.46 39.2747 599.285 39.2747C598.585 39.2747 597.71 39.6247 597.01 39.6247H596.31C595.96 39.6247 595.61 39.7997 595.61 39.6247V39.7997H595.435L595.085 39.9747C594.91 39.9747 594.735 40.1497 594.56 40.1497L594.385 40.3247L594.21 40.4997C593.86 40.6747 593.51 40.8497 593.335 41.0247C592.81 41.5497 592.285 42.0747 591.76 42.7747C591.235 43.2997 590.535 43.8247 590.01 44.5247C589.66 44.8747 589.485 45.2247 589.31 45.5747C589.135 45.7497 588.96 45.9247 588.96 46.0997C588.785 46.2747 588.785 46.4497 588.61 46.6247C588.435 46.9747 588.085 47.1497 587.735 47.4997C587.56 47.6747 587.385 47.8497 587.385 48.0247C587.21 48.0247 587.21 48.0247 587.21 48.1997C587.035 48.1997 587.035 48.3747 587.035 48.3747C586.86 48.7247 586.685 49.0747 586.51 49.5997C586.335 49.9497 586.16 50.2997 585.985 50.6497C585.81 50.9997 585.635 51.3497 585.635 51.8747C585.46 52.2247 585.285 52.5747 585.285 52.9247C584.935 53.7997 584.935 54.6747 584.76 55.3747C584.76 55.8997 584.585 56.2497 584.41 56.5997C584.235 56.9497 584.06 57.4747 583.885 57.8247C583.71 58.6997 583.71 59.5747 583.535 60.2747C583.535 61.1497 583.535 62.0247 583.535 62.8997C583.36 63.7747 583.01 64.6497 582.835 65.5247C582.835 66.0497 582.66 66.3997 582.485 66.7497C582.485 67.2747 582.31 67.6247 582.31 67.9747C582.31 68.4997 582.135 68.8497 582.135 69.3747C582.135 69.7247 581.96 70.0747 581.96 70.5997C581.785 71.4747 582.135 72.3497 582.135 73.2247C581.96 74.0997 581.61 74.7997 581.61 75.6747C581.61 76.5497 581.96 77.4247 581.96 78.2997C581.96 79.1747 581.61 80.0497 581.61 80.9247C581.61 81.7997 581.435 82.6747 581.435 83.5497C581.435 84.4247 581.61 85.2997 581.61 86.1747C581.61 87.2247 581.435 88.0997 581.435 88.7997C581.435 89.8497 581.435 90.7246 581.435 91.5996V91.7747V91.9496C581.435 92.1246 581.61 92.2997 581.61 92.6497C581.61 92.8247 581.61 92.9996 581.785 93.3496V93.5247C581.785 93.6997 581.785 93.6996 581.785 93.6996C582.135 94.5746 581.785 95.6247 581.96 96.6747C581.96 96.8497 581.96 97.0246 581.96 97.3746C582.135 97.3746 582.135 97.3746 582.135 97.3746C582.135 97.5496 582.135 97.5497 582.135 97.5497L582.31 97.7246C582.485 98.0746 582.66 98.5996 582.835 99.1246C583.185 100.175 583.36 101.05 583.535 101.75C583.885 102.8 584.06 103.675 584.235 104.725C584.585 105.425 585.285 107.525 585.285 107.525Z" fill="white"/>
</svg>
