<svg width="600" height="600" xmlns="http://www.w3.org/2000/svg">
  <defs>
    <!-- Define the repeating pattern -->
    <pattern id="greekMotifs" x="0" y="0" width="600" height="600" patternUnits="userSpaceOnUse">
      <!-- Olive branch - top left -->
      <g transform="translate(50, 50) scale(0.15)" opacity="0.3">
        <path d="M89.5221 398.734C97.2142 401.637 95.111 408.577 87.136 409.225C72.2424 410.435 76.6361 397.662 80.5325 389.022C81.6063 386.643 87.2004 377.412 86.6438 375.524C85.0419 373.257 84.3947 370.526 83.0952 368.109C78.7054 359.938 72.288 351.949 67.8997 343.414C60.7908 329.586 56.7529 315.114 51.5372 300.649C46.1956 285.835 38.6763 269.519 35.6422 254.096C33.4763 243.089 35.3209 231.277 35.0236 220.149C34.8118 212.255 33.8264 204.161 32.668 196.503C31.0881 186.055 39.6155 172.087 43.0947 162.509C38.2821 157.586 34.4393 151.839 30.618 146.139C24.2207 136.597 15.7094 123.885 11.1455 113.516C0.431852 89.1832 6.81787 43.7366 38.4024 38.9539C50.7308 37.0878 60.7433 45.5957 69.0609 53.417C68.6849 48.5718 68.0987 43.265 66.4659 38.6549C65.0974 34.7901 62.3386 31.752 60.9218 28.0552C60.124 25.9791 60.6599 24.8319 62.3228 26.8687C63.125 27.854 63.6458 29.0838 64.637 30.1601C71.2449 37.3313 73.8145 40.1676 76.9907 49.8693C79.9381 58.8804 83.8259 69.761 83.911 79.2042C83.9538 84.3113 82.8006 89.529 82.6256 94.6273C82.4346 100.237 83.0244 105.969 82.6695 111.578C81.8631 124.445 75.7011 141.079 69.6404 152.418C66.8447 157.65 62.2048 163.084 60.0465 168.255C59.0416 170.664 58.708 173.372 57.8391 175.819C56.826 178.672 54.8655 182.133 54.2298 184.942C53.4921 188.184 54.0463 191.734 53.6769 195.093C52.9062 202.074 47.7583 207.2 46.6831 213.923C45.8757 218.979 46.5214 235.704 47.8414 240.663C48.6584 243.739 50.6735 246.838 51.7622 249.932C55.3102 260.011 57.4277 270.858 61.0709 280.637C70.5502 306.081 83.5086 330.289 94.0333 355.239C96.184 360.335 99.0333 366.123 98.1562 371.739C97.5588 375.564 93.841 377.626 92.8474 380.991C92.3854 382.558 92.5788 384.337 92.2428 385.982C91.375 390.242 90.076 394.483 89.535 398.729L89.5221 398.734Z" fill="#4E5B2B"/>
      </g>
      
      <!-- Amphora - center -->
      <g transform="translate(250, 200) scale(0.12)" opacity="0.25">
        <path d="M283.197 48.2378C294.439 50.9195 302.543 60.0957 305.371 71.153C312.013 97.1111 305.83 128.291 280.952 142.015C272.818 146.503 265.349 146.489 256.429 144.827C258.798 154.522 254.645 165.229 244.755 168.612C245.379 174.035 245.914 179.536 246.755 184.925C251.504 215.281 258.509 245.258 262.442 275.724C265.661 300.667 266.7 325.792 269.475 350.772C272.323 376.428 276.422 401.798 279.794 427.32C279.968 428.63 279.519 429.961 279.667 430.895C279.845 431.998 283.798 436.474 284.745 438.118C287.477 442.867 292.183 457.427 284.708 459.683C278.045 461.694 275.277 452.074 272.535 447.914C270.777 445.244 269.587 443.708 266.244 443.643C260.765 443.54 255.527 444.764 249.875 444.621C233.97 444.221 217.348 441.455 201.216 442.075C185.316 442.687 170.202 446.952 154.716 447.791C146.307 448.248 137.801 447.626 129.285 448.788C126.631 449.149 123.595 450.171 120.98 450.5C113.96 451.391 106.853 451.6 99.8255 452.212C99.099 452.826 100.204 459.885 100.225 461.55C100.286 466.092 99.1782 470.654 98.8637 475.166C104.199 474.031 109.597 473.665 115.003 472.981C132.909 470.72 151.125 468.536 169.207 468.35C193.909 468.094 218.758 469.258 243.496 468.13C251.586 467.759 259.379 465.25 267.296 464.074C274.725 462.967 282.443 462.654 289.901 461.517C293.73 460.934 295.368 459.295 299.79 460.464C305.131 461.878 307.238 466.274 309.076 471C314.072 483.82 317.698 502.301 317.123 516.03C316.936 520.558 316.023 525.961 310.797 527.166C304.575 528.598 291.284 524.927 284.102 524.387C271.525 523.446 258.723 524.146 246.095 524.302C242.841 524.341 239.11 523.724 235.772 523.911C224.369 524.55 211.268 527.477 199.5 528.654C185.865 530.016 172.554 530.311 158.982 531.107C142.346 532.082 126.404 536.672 110.005 538.872C102.501 539.878 94.6207 539.903 86.9083 541.022C83.0407 541.585 80.5854 543.473 76.4246 541.804C66.1963 537.692 63.7599 516.574 64.793 507.129C64.8274 506.799 67.0211 501.322 67.2447 500.97C68.3973 499.125 70.1283 499.22 71.469 500.826C71.9316 501.38 73.9823 505.036 74.3063 505.804C76.2435 510.389 76.4049 516.294 77.8703 521.274C78.3087 522.765 80.2758 529.163 81.8193 529.299L95.3965 526.766L108.349 526.038L130.361 522.168L149.42 519.91C179.469 519.186 208.507 515.494 238.658 517.458C257.568 518.693 274.341 519.236 293.403 518.099C295.431 517.979 299.682 517.819 301.409 517.33C301.905 517.19 302.292 517.093 302.387 516.505C300.68 501.584 293.873 487.809 292.007 472.828C291.462 471.446 288.434 471.454 287.106 471.331C278.07 470.479 268.555 473.831 259.37 474.668C247.884 475.712 237.827 477.514 226.625 479.096C217.385 480.4 208.568 479.793 199.443 480.284C192.659 480.649 185.755 481.637 179.027 482.198C164.657 483.395 150.717 484.5 136.401 486.216C119.601 488.224 102.742 490.201 85.8542 491.826C80.9515 492.299 75.9078 493.509 70.8794 493.14C67.7874 492.916 65.3263 490.808 66.3292 487.516C68.2222 481.32 83.5595 478.444 88.9776 476.798C89.3226 476.196 86.9931 467.225 86.7495 465.572C86.0736 460.999 84.4047 447.274 85.2664 443.421C86.4866 437.965 91.7427 435.386 96.874 434.812C95.6669 429.849 94.3581 424.748 93.6455 419.683C91.4402 404.02 91.7098 388.171 91.0479 372.443C89.4689 334.926 89.2492 297.422 86.7337 259.923C85.335 239.071 82.198 218.196 82.6629 197.16C82.746 193.516 82.6387 187.092 86.9754 185.957C88.6154 185.528 90.07 186.209 91.1524 187.4C93.8592 190.387 95.5998 203.283 96.7158 207.871C99.8216 220.644 104.698 235.025 106.658 247.774C110.574 273.231 108.094 299.055 108.944 324.613C109.47 340.382 111.447 356.048 111.569 371.841C111.712 390.452 108.613 408.732 108.253 427.251C108.2 430.024 107.81 432.825 107.696 435.595C112.725 435.973 117.764 436.752 122.819 436.862C136.204 437.153 149.893 435.721 163.408 435.809C177.101 435.898 192.471 437.311 206.023 435.807C223.802 433.837 242.669 427.984 260.185 426.193C262.214 425.984 264.529 426.682 266.666 426.076L265.977 413.8C265.875 412.755 265.33 411.821 265.208 410.772C262.879 390.797 259.71 370.98 257.403 350.989C252.948 312.42 248.899 273.79 243.398 235.417C241.927 213.536 238.027 191.7 238.605 169.777C237.78 169.14 223.144 172.477 220.776 172.806C191.208 176.964 160.581 175.408 130.862 178.954C121.285 180.094 111.758 182.229 102.218 183.469C93.5959 184.589 84 184.984 77.1101 178.645C75.0568 176.755 70.7352 167.444 69.955 164.548C69.6188 163.3 69.5551 159.832 68.8565 159.449C63.1339 159.192 57.4316 158.106 51.895 156.697C37.8673 153.128 30.0398 148.637 19.454 139.016C9.97532 130.403 5.62898 106.485 7.50209 94.3004C9.62561 80.5053 20.7605 67.1496 31.6167 58.9887C30.2794 56.1725 28.6681 53.4708 26.9414 50.8826C24.6232 47.4113 17.6174 39.8364 17.3863 36.1742C16.9836 29.736 28.833 26.8934 33.7074 25.9183C49.0042 22.86 65.6284 22.0631 81.1392 21.0391C103.51 19.5589 125.629 18.5833 148.027 17.8943C183.479 16.8037 218.681 14.8915 254.068 11.9674C265.419 11.0297 278.984 8.2598 289.868 12.7446C292.552 13.8517 294.561 16.3061 295.209 19.1448C297.728 30.189 286.746 38.9408 283.196 48.2239L283.197 48.2378Z" fill="#4E5B2B"/>
      </g>

      <!-- Small olive branch - bottom right -->
      <g transform="translate(450, 450) scale(0.1) rotate(45)" opacity="0.2">
        <path d="M89.5221 398.734C97.2142 401.637 95.111 408.577 87.136 409.225C72.2424 410.435 76.6361 397.662 80.5325 389.022C81.6063 386.643 87.2004 377.412 86.6438 375.524C85.0419 373.257 84.3947 370.526 83.0952 368.109C78.7054 359.938 72.288 351.949 67.8997 343.414C60.7908 329.586 56.7529 315.114 51.5372 300.649C46.1956 285.835 38.6763 269.519 35.6422 254.096C33.4763 243.089 35.3209 231.277 35.0236 220.149C34.8118 212.255 33.8264 204.161 32.668 196.503C31.0881 186.055 39.6155 172.087 43.0947 162.509C38.2821 157.586 34.4393 151.839 30.618 146.139C24.2207 136.597 15.7094 123.885 11.1455 113.516C0.431852 89.1832 6.81787 43.7366 38.4024 38.9539C50.7308 37.0878 60.7433 45.5957 69.0609 53.417C68.6849 48.5718 68.0987 43.265 66.4659 38.6549C65.0974 34.7901 62.3386 31.752 60.9218 28.0552C60.124 25.9791 60.6599 24.8319 62.3228 26.8687C63.125 27.854 63.6458 29.0838 64.637 30.1601C71.2449 37.3313 73.8145 40.1676 76.9907 49.8693C79.9381 58.8804 83.8259 69.761 83.911 79.2042C83.9538 84.3113 82.8006 89.529 82.6256 94.6273C82.4346 100.237 83.0244 105.969 82.6695 111.578C81.8631 124.445 75.7011 141.079 69.6404 152.418C66.8447 157.65 62.2048 163.084 60.0465 168.255C59.0416 170.664 58.708 173.372 57.8391 175.819C56.826 178.672 54.8655 182.133 54.2298 184.942C53.4921 188.184 54.0463 191.734 53.6769 195.093C52.9062 202.074 47.7583 207.2 46.6831 213.923C45.8757 218.979 46.5214 235.704 47.8414 240.663C48.6584 243.739 50.6735 246.838 51.7622 249.932C55.3102 260.011 57.4277 270.858 61.0709 280.637C70.5502 306.081 83.5086 330.289 94.0333 355.239C96.184 360.335 99.0333 366.123 98.1562 371.739C97.5588 375.564 93.841 377.626 92.8474 380.991C92.3854 382.558 92.5788 384.337 92.2428 385.982C91.375 390.242 90.076 394.483 89.535 398.729L89.5221 398.734Z" fill="#4E5B2B"/>
      </g>

      <!-- Tiny decorative elements scattered -->
      <circle cx="150" cy="400" r="3" fill="#4E5B2B" opacity="0.15"/>
      <circle cx="500" cy="100" r="2" fill="#4E5B2B" opacity="0.15"/>
      <circle cx="350" cy="550" r="2.5" fill="#4E5B2B" opacity="0.15"/>
    </pattern>
  </defs>
  
  <!-- Apply the pattern to fill the entire canvas -->
  <rect width="100%" height="100%" fill="url(#greekMotifs)"/>
</svg>